<?xml version="1.0" encoding="utf-8"?>
<!-- Generator: Adobe Illustrator 21.1.0, SVG Export Plug-In . SVG Version: 6.00 Build 0)  -->
<svg version="1.1"
	 id="svg3501" inkscape:output_extension="org.inkscape.output.svg.inkscape" inkscape:version="0.46" sodipodi:docname="Map_of_California_outline.svg" sodipodi:version="0.32" xmlns:cc="http://creativecommons.org/ns#" xmlns:dc="http://purl.org/dc/elements/1.1/" xmlns:inkscape="http://www.inkscape.org/namespaces/inkscape" xmlns:rdf="http://www.w3.org/1999/02/22-rdf-syntax-ns#" xmlns:sodipodi="http://sodipodi.sourceforge.net/DTD/sodipodi-0.dtd" xmlns:svg="http://www.w3.org/2000/svg"
	 xmlns="http://www.w3.org/2000/svg" xmlns:xlink="http://www.w3.org/1999/xlink" x="0px" y="0px" viewBox="0 0 2112 2112"
	 style="enable-background:new 0 0 2112 2112;" xml:space="preserve">
<style type="text/css">
	.st0{fill:#FFFFFF;stroke:#000000;stroke-width:5;stroke-linejoin:round;}
	.st1{fill:none;stroke:#FF353A;stroke-width:10;stroke-linecap:square;stroke-linejoin:bevel;}
</style>
<defs>
	
	
		<inkscape:perspective  id="perspective3643" inkscape:persp3d-origin="4582.2002 : 3512 : 1" inkscape:vp_x="0 : 5268 : 1" inkscape:vp_y="0 : 1000 : 0" inkscape:vp_z="9164.4004 : 5268 : 1" sodipodi:type="inkscape:persp3d">
		</inkscape:perspective>
</defs>
<sodipodi:namedview  bordercolor="#666666" borderopacity="1.0" gridtolerance="10.0" guidetolerance="10.0" id="base" inkscape:current-layer="svg3501" inkscape:cx="4582.2002" inkscape:cy="2896.912" inkscape:pageopacity="0.0" inkscape:pageshadow="2" inkscape:window-height="856" inkscape:window-width="1379" inkscape:window-x="61" inkscape:window-y="0" inkscape:zoom="0.060839028" objecttolerance="10.0" pagecolor="#ffffff" showgrid="false">
	</sodipodi:namedview>
<g id="use3536">
	<g id="state_outline">
		<path id="_x31_729" class="st0" d="M-241.9-3653.2l24,1.6l45.1,4l8.7,0.6l9.2,0.4h0.5l24.1,1l55.8,2.8h7.3l10.1,0.6l21.6,0.6
			l2,0.1l62.1,2.8l53.6,2.6l25.8,1l11.1,0.3l1.6,0.1l62.9,2.9l11,0.5l23.9,1.1l26.1-3.4l87.2,3.7l49.2,2l41.3,1.7l47.9,1.6l4.4,0.3
			l9.4,0.5l1.3-0.1h0.6l48.8-0.9l11.8-0.2l26.9-0.5l13.6-0.4l2.3-0.1l24.3-1.2l35.2-2l53.7,6.4l16.9,2l1.3,0.2l14.6,0.2l16.4,0.3
			l93.5,1.8l141.4,2.9l14.8,0.3l27.9,0.4l33.3,0.7l31.7,0.6l3,0.1l13.9-0.1l48.2-0.4l142.4,1.1l3.1,0.2l32.2,1l16.9,0.5l15.4,0.4
			l18.8,0.5l30.4,0.8l16.4,0.4h1.4l13.9,0.7l14.4,0.6l1.4,0.1l19,0.9l14.9,0.5l7.6,0.3l55.9,2.7l55.8,2.6l36.9,1.7l37.9,1.7l1,0.1
			l2.6,0.1l55.4,1.7l107.5,3.3l11.8,0.6l4.7,0.3l8.5,0.7l22.2,0.5l9.1,0.3l112.2,3.3l21.6,0.3l88.7,1.1h6.4l2.3,0.1l14.1,0.3h2.3
			l14.6,0.3l41.7,0.8l14.3,0.3l8.1,0.1l89.1,0.9h1.2l86.6,5.4l16.2,0.1h25.1l57.3,0.1l242.3,0.8l49,0.1l35.3,0.2l48.9,0.1l112-0.1
			h13.5l5.7-0.1l67.3-0.5l79.4-0.1h16.4l33.8-0.3h6.9l21.5,0.1l0.5,50.1l0.3,22.2l-0.2,25.2l0.1,7.1l0.5,106.9l1,101.9l0.2,25.1
			l0.1,38l0.7,320l0.2,96.7l-0.6,46.9l0.1,45.2v15.3l-0.2,49.2l0.3,132.2l0.2,97.7l0.9,97.8l0.1,13.6l0.3,34.2v9.6l0.6,46.3
			l0.5,72.5l0.8,79.6l0.3,22.2l0.1,8.6l0.1,39.2l0.3,22.2l0.1,11.6l0.7,73.5l0.2,22.2v5.5l-0.1,51.4l0.4,68.9l0.2,14.7l-0.4,53.9
			l-0.1,13.5v18.8l-0.1,16.1v32.2l0.2,50.2l0.1,34.4v4.4l-0.2,24.2l0.1,16.8l-0.2,10.9l0.1,3.2l-0.2,12.9l-1,71.5l-0.2,13.3
			l-0.3,17.4l-0.1,14.9l-0.1,11.8l-0.4,134.2l-0.4,13.6v2.2l-0.4,13.9l0.1,3.2v16.1l-0.4,14v1.6l-0.4,13.5v1.6l0.1,15v16.6
			l-0.1,16.1v14.2l-0.1,50.3l-0.1,16.7v17.1l-0.1,12.1l-0.1,50.3l0.1,15.1l0.2,32.7l0.4,48.8l-0.4,14.7v1.4l-0.1,16.6l-0.1,16.7
			l-0.1,14.6l-0.2,15.6l-0.1,18.6l-0.4,32.3l-0.2,17.1l0.3,15l-0.1,1.1l-0.3,16.1l-0.1,14.5l0.1,4.1l0.7,42.8l0.5,27.6l-0.1,49.3
			l0.2,11.7l1,59.9l0.8,48.6l1.3,74.6l43.6,37.8l27.3,23.7l3.7,3.3l11,9.7l48.2,42.5l18.3,16.2l3.3,2.9l28.2,24.5l2.3,1.3l30.8,27
			l7.8,6.9l12.7,11.3l21.9,19.7l22.1,19l53.8,46.8l6.8,5.9l9.7,8.5l18,15.7l21.7,18.9l2.2,1.9l83.7,73l4.5,3.9l104.2,91.4l80.7,70.5
			l18.4,16.1l38.5,33.4l18.1,15.7l10.7,9.4l107.8,94.5l23.3,20.3l34.2,29.8l7.3,6.4l30.8,26.7l46.6,40.6l25.2,22.2l36.1,31.6
			l10.8,9.5l50.7,44.3l98.1,85.8l56.1,48.8l40,34.8l29.5,25.7l38.4,33.6l29.3,25.3l33.2,29.1l62.3,54.4l92.9,81.2l67.7,59.1
			l25.8,22.7l22.1,19.6l30,26.4l63.8,56.1l105.1,92.3l1.6-0.1l75.4,65.8l9.8,8.5l50.6,44.4l38.7,33.4l50.6,44.4l6.2,5.5l6.7,6
			l55.2,47.8l5.7,5l141.9,124.2l51.2,44.9l8.2,7l8.3,7l20.1,17.9l12.4,10.5l69.1,60.7v1.2l146.3,127.6l21.7,18.9l2.6,2.1l12.9,11.3
			l37.2,32.3l30,26l9.7,8.5l32.6,28.8l2.7,2.4l48.8,42.6l77.1,67.1l27.4,23.8l16.8,14.5l2.4,2.2l56.6,49.8l19,16.4l14.1,12.2
			l31.7,27.7l13,11.4l125.9,109.8l74.3,64.6l11.2,10l48.8,42.6l54.2,47.9l2.7,2.4l38.8,34.2l23.2,20.4l38.8,34.2l12.6,10.8
			l52.9,46.5l38.2,33.4l32,27.9l21.4,18.7l194.4,170.4l35.1,30.7l2.9-0.1l18.6,16.4l35,31l52.6,45.4l13.4,12l89.6,77.9l11.4,10
			l184.4,161.4l10.3,9l3.1,3l47.9,41.4l44.8,39.5l17.5,15.5l17,15l27.8,24l15.9,14l43.8,38.4l30.4,26.5l13.9,12l102.4,90l52.5,46.5
			l20.1,17.5l9.9,9.6l19.9,17l9.1,7.8l16.7,14.7l17.3,15.6l1.8,1.5l15.3,13.6l25.3,22.2l1.3,2l2.8,7l0.6,6.9l0.5,2.2l-2.1,10.6
			l-1.7,9.8l1.1,5.2l0.5,2.2l1.3,5.5l2.4,7.3l1.2,8.5l-0.9,7.9l-0.7,9l1,6.5l1.2,6.2l0.7,3.7l-0.4,6.7l-2.1,6.2l-1,7.6l-0.4,7
			l0.7,7.2l2.9,7.4l6,7l9,6.2l0.9,0.5l11.3,6.8l10.6,7.4l0.5,0.8l6.1,7l5.5,8.8l2.4,8.4l0.5,1.3l3.3,10l0.9,2.7l3.3,9.8l6.7,12.6
			l6.1,10.7l8.9,10.4l7.5,7.5l8.7,5.8l5.9,3.2l5.6,6l3.1,5l4,4l6.3,2.4l6.4,2l6.9,3l1.8,2.8l1.8,3l1.2,2.4l6.3,4.7l0.8,0.2l3.7,0.7
			l5.4,3.6l3.8,7.8l2.2,6.3l0.3,1.6l2.4,7.9l4.8,7.7l3.8,8.3l3.5,5.8l1.3,2.9l-1.4,2.9l-1.8,1.9l-1.8,3.2l0.7,1.9l1.3,3l1.9,1.7
			l2.6,2.5l5.5,4.6l2,4.8l1.7,8.5l2,6.9l1.6,6l3,3.8l3.8,2.7l5.4,3.6l2.9,3.8l0.9,3.9l-1.8,2.7l-2.9,2.8l-2.9,2.3l-2.8,2.7l-0.6,1.2
			l-0.8,1.5l0.8,2.9l3,3.8l5.5,4.1l11.3,7.5l4.1,3.1l3.6,2.9l2.5,3.5l3,5l3.8,6.5l2.7,4.8l4,4.8l2.6,6l4.6,7.5l4.1,10.3l2.2,8.4l1,9
			l-1.3,10.8l-0.2,1.4l-1.4,13.1l0.4,7.1v2.8l0.2,7.7l-1.8,8.1l-0.2,5.6l2,5.5l4.7,5.6l5.6,2.4l5.4-0.5l0.9-0.1l6.6-2.4l0.9-0.2
			l10.1-3.2l5.6-0.5l4.2,1.2l2.8,2.2l2.5,4.9l2.7,3.4l3.9,3.1l0.7,0.4l4.1,1.9l7.6,3.3l6.4,3.5l5.9,3.7l3,4.1l3.2,5.5l1.9,5.7
			l2.7,4.3l3.6,2.5l4.6,0.4l5.1,0.1l6.2,0.4l4.9,2.7l4.9,4.3l3.9,3l7.4,7l1.6,1.4l6.6,5.5l4.8,7.7l2.9,3.5l1.6,1.5l3.8,2.9l0.8,0.4
			l4.1,0.9l1,0.3l6.7,1.9l8.4,1.3l0.8,0.3l8.2,2.5l5.6,1.3l4.1,2.5l3.3,4.2l3.9,5.4l4.6,6.2l1.7,2.2l3.1,3.8l6.7,6.5l5.1,4.3
			l6.7,6.9l3.6,6.2l3.6,5l0.6,3.3l0.9,4.2l0.5,3.7l0.6,3.9l2.6,6v7.1l1.1,5l1.5,3.1l1.7,4.2l0.9,4.3l-0.9,2.3l-2.9,1.8h-3.9
			l-4.6-0.5l-3.6,0.6l-3.8,0.7l-4.1,0.3l-2.7,1.1l-0.8,0.3l-1.4,1.1v3.6l-1,2.6l-1.4,2.1l-1.6,1.4l-2.3,1l-2.4,2.2l-2.3,3.7
			l-1.3,2.7l-2.3,3.2l-7.8,9l-9.2,10.2l-6.9,8.7l-4.5,4.3l-1.5,0.9l-3.9,3.9l-2.9,2.6l-1.7,2.5l-0.3,2.9l-0.7,4.1l0.5,3.6l-0.6,2.8
			l-0.9,2.2l-2.2,2.1l-0.7,0.3l-3.2,1.2l-4.1,3.6l-2.8,2l-1.3,1.4l-2.5,2.7l-6.3,4.3l-4.4,1.3l-6.7,1.6l-4.1,1.2l-0.9,0.1l-4.7,0.1
			l-4.1-0.3l-2.1,0.5l-3,2l-3.3,1.9l-4.8,5.7l-5.2,8.8l-7.1,9.5l-6.6,7.6l-5.6,4.8l-7.2,2.9l-7.2,2.1l-6.2-0.2l-4.5,1.9l-1.4,1.6
			l-0.4,0.7l-2.8,4.1l-3.1,4.6l-4.8,5.3l-5.4,2.9l-7.5,2.7l-4.4,2.9l-4.9,2h-4.8l-3.5-0.3l-1-0.1l-2.1-0.2l-2.1,0.9l-5.4,2.3
			l-4.2,4.4l-3.4,3.9l-3.5,6.3l-3.6,5.4l-2.2,3.9l-2.2,5.6l-0.3,2.5l-0.7,4.6l-0.3,2l-1.2,9.3l-0.3,8.9l0.6,6.8l1.6,7l2,6.4l0.2,2.5
			l0.3,3l0.2,7.6l-1.5,7.2l-2.2,4.9l-6.1,5.9l-2.9,2.3l-2.7,0.5l-5.5-0.3l-2.1-0.3l-2.3,2.7l-2.4,2.5l0.6,2.3l2,2.2l3.1,2.5l3.8,2.1
			l1.3,1.4l-0.5,2l-2.5,1.6l-2.1,0.5l-3.6,2.1l-2,2.5l-2.3,3l-1,1.9l-0.4,0.8l-1.3,2.1l-2.6,1.8l-2,2.4l-0.6,0.7l-1.6,1.6l-1.2,1.7
			l-2.4,3.3l-5,7.6l-4.1,6.1l-1.9,1.9l-4.5,1.9l-2.9,1.1l-4.6,1.1l-1.4,0.4l-1.6,0.5l-3.5,1.3l-3.8,3.2l-2.8,4.9l-2,5.7l-2.9,8.3
			l-1.1,6.1l-0.1,1.7l0.5,2.4l2.3,2.3l1.7,1.1l2.7,1.4l6.2,3.3l5.7,4.5l4.5,5.5l3.7,6l-1.3,3.6l-1.3,2.5l-6.8,0.3l-2.9-1.7h-2.3
			l-1.5,1.2l-0.3,2.8l3.1,4.6l4.1,4.5l6.2,5.5l6.9,5.7l2.8,2.8l1.1,5.5l-1.2,4.7l-2,3.8l-2.2,2.1l-0.8,0.5l-3.6,2.4l-4,1.3h-4.1
			l-2.6-0.4l-3.1-0.2l-1.4,1.1l-0.8,2.6l0.3,4l1.5,4.9l2.8,6.9l0.3,0.8l2.8,8.1l2.4,5.5l0.9,3.8l-0.4,2.8l-2.5,3l-1.5,2.1l-0.6,1.5
			l-0.4,5l1.9,4.2l3.2,6.9l3.1,8.6l5.2,11l1.8,3.7l1.9,3.9l4.5,9.5l1.1,2.6l1.9,6.3l1.7,8.8l-1.7,7.7l-2.1,5.2l-1.8,3.8l0.3,2.9
			l1.8,4.1l2.9,2.6l3.8,2.4l2.9,4.7l2.8,5.4l3.2,10.3l0.4,5.3l-2.5,6.6l-4,2.5l-1.7,0.9l-3.5,1.7l-1.6,0.8l-4,1.8l-5.2,2.6l-2.2,1.5
			l-1.2,0.8l-0.6,0.6l-1.4,1.1l-1.5,1.6l-2.2,5l-1.6,5.6l-0.6,4.4l1.3,4l2.3,2.3l3.7,0.3l4.6,0.5l3.1,2l0.7,0.7l0.3,2l-2.5,1.8
			l-3,1.3l-3.1,1.8l-3.3,2.2l-1.3,1.9v2.5l0.9,3.3l2.5,3.9l2.3,2.9l0.7,3.3l-0.2,3.1l-0.6,0.9l-1.9,2.8l-0.5,2.6l-1.3,4.2l0.3,3.3
			l1,2.6l2,2.5l1.8,2.8l1.2,2.5l-0.3,3l-2.4,4.5l-0.8,1.2l-4.9,7.2l-4.2,6.6l-1.8,2l-0.4,1.5l0.7,2l1,3.1l-0.5,2.9l-0.2,4.1l0.8,2.5
			l1.8,3.4l2.3,2.7l0.5,3.5l1.1,4.1l2.7,2.2l0.6,0.6l1.8,1.7l2.6,2.5l0.4,3.5l-1.7,2.8l-0.6,0.9l-2.6,2.8l-2.4,2.8l-3.3,3.9l-6,3.4
			l-4.2,4.4l-5.1,4l-0.8,2.2l-3,4.2l-0.2,3.5l-0.2,4.1l-0.4,3.7l-0.6,1.9l-0.5,1.6l-1.9,3.1l-3.1,2.5l-0.6,0.4l-2,1.6l-2.8,2.1
			l-0.7,0.4l-1.9,0.8l-1.4,0.5l-0.8,0.4l-3.6,2l-4.1,3l-4.1,4.3l-3,5.9l-3.2,11.8l-1.4,2.6l-2.2,3.6l-0.5,0.7l-1.4,2.1l-2.5,3.5
			l-4.8,6.8l-1.3,2.3l-1.3,2.5l-1.7,4.7l-1,4l0.4,3.7l0.1,1.3l-0.5,5.6l-0.5,6l-1.5,5.1l-1.1,2.3l-0.4,0.7l-2.9,5.9l-4.1,6.4
			l-4.4,3.3l-2.9,2.2l-3.7,2.3l-6,2.8l-3.1-0.9l-1.6-0.4l-9-2.1l-4.2-1.2h-5.7l-6.1,0.5l-4.9,2.5l-4.2,3.1l-2.1,2.8l-4.3,2.1l-4,1.3
			l-4.1,0.9l-4.5-0.1h-2.6l-3.5,1l-0.9,2.1l-0.6,3.5l2,4l5.9,6.1l5.9,5.5l3.1,3.5l1.4,3.3l0.3,1l0.9,4.3l0.7,1.1l1.9,3.4l2.3,6.3
			l0.2,0.8l1.5,4.2l1,6l0.8,5l0.2,1l0.1,0.9l0.2,8.7l-2.1,8.5l-3.1,6.7l-7.1,11.5l-4.5,5.1l-6.3,5.6l-2.6,5.3l-0.8,5.9l2.8,6.1
			l5.4,8l4.7,3.5l5.6,1.4l7.2,0.4l3.4,0.2l7.3,1.3l8.7,3.5l5.3,4.5l3.5,4.8l3,4.8l-0.1,3.5l-0.4,1.5l-0.4,2.2l-3.1,2.9l-2.9,1.9
			l-1.2,1l-2.6,2.2l-3.1,4.3l-0.9,1.8l1,4.5l2.4,3.2l1,1.3l4.4,3.7l3.5,4.4l1.5,2.6l0.9,1.6l1.5,6l0.2,5.6l-0.1,0.8l-0.7,4.8
			l-1.7,4.7l-1,3.2l-0.7,1.3l0.7,3.3l0.3,2.4l2.5,4.8l1,5.5l-0.6,6.4l-1.5,6.6v4.5l0.1,1.1l0.2,3.5l0.2,1.4l0.5,4.2l-0.8,5.5
			l-1.7,5.1l-0.3,1.1l-2.2,6.5l-5.6,11.4l-5.7,11.6l-0.4,0.8l-3,7.6l-2.1,9.1l-1.1,7.9l0.3,9.2l-0.1,5.5l1.3,3.5l2.7,1.8l3.6-0.8
			l4.6,0.1l3.1,0.7l1.6,2.6l0.1,0.8l0.3,2l2.7,7l2.6,5.1l1,2.1l4.6,4.9l2.7,2.6l1.9,2.9l-0.6,6.1l0.2,3.5l1,5.6l2.4,2.8l3.8,5.7
			l5.1,3h3.1l3-2l1.6-4.6l1.6-5.7l1.6-4.7l3.5-1.8l3.1,0.3l3.4,2.7l2.7,3.3l3,4.8l5.6,4.5l2.9,3l2,1.3l6.4,1.7h0.9l6.3,0.4l9.7-0.5
			l4.6-0.1h3.1l4.3-3l2.3-2.5l0.6-0.7l3-2.9l1.6-1.3l2.4-1.8l5.2-1.5l8.1,1.9l10,0.9l8.3,0.4l8.2,0.8l5.3,1.1l3,0.6l4.4,1.6l2.2,0.7
			l4.7,3.7l4.1,5.6l1.4,2.2l2.8,5l3,6.9l3.1,9.1l1.4,5.6l1.3,3.5l-0.1,7.5l0.6,5.6l2,4.5l3.3,3.7l2.9,0.3l3.3-1.3l3.2-4.4l3-1.2
			l1.5,0.3h1.1l3.8,3.2l2,3.3l1,6.6l0.6,7.5l-1,6.1l-3.6,7.1l-4.2,4.8l-1.4,2.8l-0.2,2.9l-0.7,4.6l1.5,5.5l6.2,6.1l5.1,3.9l0.9,0.8
			l3.3,3.1l1.2,4.4l0.1,1l0.4,2.6l0.5,3.5l0.2,2.5l-0.4,8.6l-0.3,8.3l-0.3,11.7l-0.8,32.5l-11.8,12.1l-12.3,13.6l-2.4,2.8l-6.6,3.8
			l-4.7,4.9l-5,5l-3,4.8l-0.6,0.9l-3.6,6l-3.2,3.8l-2.4,4.4l-0.9,5l0.1,1.5l-0.3,2.1l-0.2,4.5l0.5,5.6l0.4,3.5l1.3,4.5l3.6,12.3
			l-4.6,0.5l-4.9,0.3l-0.1,7.7l-7.6,0.6l-6.6,0.3l-9.8,0.6l0.2,8.1l-15.8,1.3l-0.3,6.1v2.6l-31.1,2.6l0.5,6l-13.7-0.8l-14.8-1
			l-11.8-0.9l-23-1.9l-5.1-2l-4.3-3l-3.9-2.5l-1.6-0.4l-2-0.6l-3.6,2.1l-2.6,3.5l-0.3,0.7l-3.2,6.4l-3.5,7.8l-4.6,10.5l-13.3,1.6
			l-203,28.1l-107.8,14.3l-48.1,6.9l-19.4,2.6l-29.2,3.7l-97.1,13.3l-95.1,13.2l-96.6,12.8l-97.1,13.2l-70.6,9.6l-28.6,4.2
			l-99.2,13.3l-98.1,13.8l-16.4,2.1l-83.8,11.1l-92,12.8l-16.3,2.1l-15.9,2.1l-63.9,9l-64.4,8.5l-30.7,4.3l-82.2,11.1l-46,6.4
			l-161,21.8l-50.6,6.9l-13.8,2.1h-2.1l-102.2,14.3l-19.4,2.7l-32.7,4.3l-16.4,2.1l-19.9,2.7l-29.6,3.7l-100.2,14.3l-86.9,11.7
			l-0.5-2.5l-1.1-5.1l-1.5-9l-1.6-3.1l-3.1-10.1l-1.1-4v-5.5l-0.5-10.7l-0.1-13.6l-1.1-11.1l-1.6-10.6l-2.1-8.1l-2-7.5l-3.7-7.1
			l-3.6-6.5l-3.1-8.1l-4.6-7l-4.7-8.1l-2.5-2l-2.6-3l-1.6-3.5l-2-4.6l-3.6-3.5l-2.1-2.5l-2-1.5l-2.6-1.5h-1l-1.6-2l-1.5-1.5
			l-1.6-2.5l-3-1.5l-4.7-2l-3.5-1l-4.1-0.5l-5.1,0.1l-5.7,1l-5.1,1.6l-3,2l-1.6,1.5h-1l-1-1l-2.1-2l-1.5-5l1.4-11.6l4.1-7.1l8.2-5.1
			l6.6-3.1l8.2-0.6l9.8,11.6l5.6,1.9l4.1,1.5l7.2,2.5l6.7,11.1l-4.6,9.1l1.1,5.1l8.1-4.1l2.6,3l-5.6,3.5l4.6,9.1l8.8,15.1l6.2,11.1
			l6.2,10h4.6l-1.5,10.1l2.1,7.6l1.6,5l2.5,4.6l3.1,3l9.8,5l2.5-2.6l2.5-3.5l4.1-4.6l0.5-1l3.6-5.1l-2.1-13.6l-5.7-4.5l-3.1-5.1
			l-5.1-0.9l-1-4.1l-1.6-5l2-3.6l-5.2-13.1v-6.5l-4.6-4.1l5.1-2l-7.2-9.6l-4.6-5.5l-19-9.5l-17.5-15l-6.7-3.5l1.5-5v-8.1l-6.7-5.5
			l-11.2-0.5l-13.8,0.1l-6.7,2.6l-3.5,8.1l-8.7,1.1l-9.2,10.6l0.6,3.6l0.5,2.5l-3,6.6l0.5,7.6l1.1,3l4.1,2v2.5l-2.1,1.5l-1,2.1v4
			l0.6,1.5v2.5l0.5,2.1l-0.5,1.5l-1,4l-1,1.5l-2.1,0.6l-1-0.5l-1.5-0.5l-0.5-1l-0.6-2.1l-1-4l-0.5-3l-1.6-5.1l-0.5-6l-2.6-6.1
			l-1.1-3.5l-1-2.5l-1-2l-0.6-3l0.5-2.6l-0.5-4.5l-0.5-6.1l-1.1-6.5l-1-2.6l-0.6-2.5v-3l1-2v-7.6l0.5-5.1l1-6.5l0.4-5.6l1.6-4.6
			l1.5-2.5l1.5-0.5l1.6,1.5h2l1.5-0.5l1-1.1l-0.5-2.5l0.5-2.5l1-0.5h1.6l1.5,1l1.6,1l2-1.1l0.5-1.5v-1l-1.5-1l-1.1-0.5h-2l-1.5-0.5
			l-0.6-1.5v-0.6l0.5-1.4l0.6-0.5h2l1.5,0.5l1-0.5v-1.1l1.1-0.5h1l1.5,1.5l1.1,1l0.5,1l1.5-0.5h2l3.1,0.5l3.6,0.5h3.6l2-0.1l1.6-1
			l1-1l0.5-2l0.5-1.5l-1.1-2.6l-1.5-4l-0.5-2.5l-0.6-2l1.1-3.1l0.4-5.5l1-3.1v-3l-1-3l-1.6-1h-2l-1.5,1l0.5,1h1.5l1,1l-2,1.5l-2,0.6
			l-2.6-0.5l-1-1l0.5-1.5l-1-1.1l-1.1-0.4l-2,1l-2,2l-0.6,1.5l-0.5,2.1l-1,0.5h-1.5v2l-0.5,3l-0.5,3.1l-1,2.5l-2,1.5h-1.6l-1-0.5
			l-2.1-1.5v-5l-1-2.5l-1.6-2l-2-1h-2.6l-3,1l-1,1.5l-0.6,1.6l1.6,3.5l1.5,1l0.6,1l-1.1,1l-0.5,1.5l0.1,0.5h1.5l1,1l1,0.5l-0.5,0.6
			l-1,0.4l-1.5,1.1l-0.5,1.5l1,1.5l1,1l1-0.5l1.1-1.5l1-0.6l1,1l-0.5,2.6v1l1.6,0.5v1l0.5,1l-1,2l-0.5,2.1l-1.1,2h-1l-0.5-1l0.5-1.5
			l-1-2.1l-1.5,2.1v3l0.5,1.5l1,1l1,0.5l0.6,1l-1.1,0.5l-1.5,0.6l-2-0.5h-2.6v-4.1l-0.1-9.6l-0.5-10.1l-0.6-7l-2.1-7.1l-2.6-6.5
			l-2-4.6l-3.1-3.5l-2.1-1.5l-1.5-0.5l-1.5-1l-0.6-2.5l-1.5-2l-1.6-1.5l-1-2l-0.5-1.5l-1.5-1.5l-1.6-0.5l-2-1v-1l-0.6-2.6v-4
			l-0.5-3.5l-1.1-2.6l-0.5-3v-2.5l0.5-3.5l1-2.1l1-2l1.5-2l1.6-2.1l1-1l2-1l2.1-0.5l1.5,0.5l2.1,0.5l2-0.1l2-0.5l2.6-2l2-3.6l2.6-6
			l0.9-5.6l1-6.6l0.5-5l-1-5.1l-0.6-3.5l-1.5-2.5l-0.5-3.6l1-4l-0.1-5.6l-1-3l-1.6-7l-1.5-6.6l-2.1-9.6l-1.1-8.6l-2.1-8.5l-2.6-8.6
			l-2.1-8.6l-3.1-7v-4.6l0.5-4l-1.6-7.1l-2.1-8.5l-2.1-8.1l-1-5.5l-1.1-2.1l-1.5-3.5l-1.1-2.5l-1-3.5l-0.5-5.1l-1.6-5l-2.1-6.1
			l-2.1-4.5l-5.1-8l-3.6-6.1l-1.6-5.5l-1.6-5l-2-5.6l-2.1-6l-3.6-8.6l-4.7-15.1l-1.6-4l-2.6-5.6l-6.2-14.6l-4.7-11.6l-3.6-7.5
			l-3.6-8.6l-2.1-4l-3.6-5.5l-1.5-4l-1.6-4.6l-2.1-3.5l-2.5-2.5l-2.6-3.5l-1.6-2.5l-4.1-7.1l-3.6-6.5l-4.6-5l-4.7-7.1l-5.7-7
			l-7.7-10l-3.6-4.1l-3.1-4l-5.1-7l-7.8-10l1.6-1.1l2,1l1-1l-3.1-5l-2.5,2l0.5,2l-1,1.1l-7.2-10.6l-6.7-9l-6.2-9.1l-4.7-7l-7.2-10.6
			l-6.7-9.5l-8.8-11l-8.2-10.1l-6.7-9l-7.2-10.6l-9.3-10l-5.2-6l-5.1-5.5l-4.6-4.6l-8.3-8l-5.6-5l-6.2-4.5l-4.1-3.5l-5.7-5l-5.1-3.5
			l-3.6-3l-5.7-4.5l-6.1-4.5l-5.7-2.5l-5.6-3l-2.1-1.5l-1.5-1.5l-4.1-2l-3.1-0.9l-5.1-2h-1.6l-2-0.5l-1.5-1.5l-3.1-1.5l-1.6-2
			l-2-1.5l-1.1-1l-1-1.5l-1-2.5l-2.6-4.1l-3.1-6l-2.1-3l-4.1-5l-1.6-3l-2-1.5l-3.1-2.5l-1-2.1l-1.1-1l-1-1.5l-1.6-3l-3-2l-2.1-2
			l-1.5-2l-0.6-1l-2-2l-3.6-3.5l-3.6-4l-3.1-2l-2.6-2.5l-4.1-3l-3.6-2.5l-3.1-3l-4.6-2.5l-4.1-2.5l-5.7-2.5l-3.6-3l-2.5-1l-1.6-1
			l-1-1l-1.5-0.5l-2.1-0.5h-2l-3.1,0.1h-1l-1,0.5h-4.1l-3.1-2h-3.1l-2.5,1.6l-0.5,1.5l-2.6,1h-2.6l-3-0.9v-2.1l-0.1-1.5l-1.5-2.5
			l-1-2.5l-1.1-3l-1.5-1l-0.5-2l-1.6-2.6l-1.6-3l-1-2.5l-1-1.5l-2.1-0.5l-1.5-0.5l-1.6-1l-1-0.5l-1-1v-1.5l-0.5-1l-1.1,0.5l-3-3
			l-0.6-1.5l-0.5-2l-0.5-2.5l-1.1-2l-1-1.6l-2-1.5l-1.6-3l-1-1l-4.7-4.5l-3.1-3l-0.5-1l-1-0.5l-1-1.5l-2.1-1l-1-2l-2.6-2.5l-1.5-3
			l-2.1-2.5l-4.6-4l-3.1-4.1l-3.6-4l-1.6-3.5l-2-2l-2.1-1l-1-1l-3.6-0.5l-2.1-1l-1-0.5l-2.6-0.9l-1.5-0.5h-4.6l-1-0.5h-1.1l-1-1.5
			l-1-3l-1.1-1l-0.5-1h-2l-1.6,1.5h-1l-1-2l-1.1-1l-1-0.5l-1,0.5l-1-0.5l-0.6-2v-1.5l-1-1.5l-1.5-3.5l-2.6-1l-3.6-1l-2.6-2l-2-2.5
			l-2.1-2l-2.6-2.5l-2.5-1.5l-2.6-2l-1.6-1.5l-3-1.5l-2.1-1l-1.5-1l-1.1-0.5l-2-1.5l-1.6-1l-2-1.5l-2.1-0.5l-2-1.5l-3.1-1.5
			l-2.1-2.5l-1-1.5l-2-1h-1.6l-2,1.6l-1.6-3.6l-1-2v-2l-0.5-1.5l-0.6-1.5l-2-3l-1.1-1l-1-3.1l-2.6-2.5l-2-1.5l-2.6-0.4l-4.1,0.5
			h-2.6l-2,0.5h-2l-1.1-1.5l-0.5-1.5l1-3l1.5-2l2.1-1.6l1.5-1l2.6,0.5l0.5,1l0.5,1.5l0.5,2l1-0.5l1.6-2v-1.5l-0.6-1.5l-0.5-2
			l0.5-1.1l1-1.5l1.6-1.5l1.5-1l1-1l1.5-1.6l-0.5-1l-0.5-2l0.5-1.5l-0.5-2.5v-1.5l-1.1-2.5l1-2.1l0.5-1.5l1.6-4l0.5-1l2.5-1.6l1.5,1
			l2.1,0.5l1-1l-1-2l-2.1-2l-3.6-1h-4.1l-2,1l-2,2.1l-0.5,2.5l-0.5,2l0.5,3.1l0.5,2.5v3.5l-0.5,3l-0.4,3.1l0.5,2.5v1.5l-1,2.5
			l-3.1,3.1l-1.5,0.5l-2.6,1l-2,1.5l-1.5,2.1l-1.5,2.5l-1.1,1.5l-1.5,1.6h-3.1l-2-1.5l-2.6-1.5l-3.1-1.5l-2-1l-2.1-1.5h-2v3.5l1,2.6
			l1.1,1.5l0.5,1.5l-0.5,1l-1-1l-1.1-0.5l-1.5-1v1l1,2l1.1,1l2.5,1l2.6,0.5h2l2.1,0.5l3.6,0.4l2.5,0.5l1.6,1.5h2l1.6-1l2,1l1,1
			l2.6,1.5l2.6,1l2.5,1l2.6,1l2.6-0.1l2,0.5l2.1,1l1.5,1.5l0.5,2.5l-5.6-1.4l-6.1-2l-6.7-1.5l-8.2-2.4l-7.2-2l-4.6-0.5h-2.1l-1-1
			l-2-1.5l-0.6-1.5l-1-2l-2.1-3l-2.5-4l-3.7-3l-4.1-3.5l-5.1-2.5l-5.6-3l-6.2-4l-6.7-3.5l-5.7-5l-6.6-4l-3.6-2.4l-5.7-2.5l-5.6-3
			l-3.6-3l-5.2-3l-5.6-4l-5.2-5l-3.6-4l-4.1-2.5l-5.7-6l-6.6-6.5l-5.7-7.1l-4.2-5l-5.1-6l-4.1-5l-3.6-4l-1.6-2.5l-2.6-1.5l-3.6-2.5
			l-2-2l-1.6-2l-1.5-1.5l-3.1-4l-4.1-4.1l-3.1-3l-1.6-0.5l-1.5-0.9l-2.1-0.5l1-2.1l-1.5-3.5h8.7l2.1,1.5l2,3.5l0.5,1l7.2,5l2.6,2.5
			l4.1,4.5l4.7,4.5l2.5,1.5l1.6-1.5l-2.1-2.5l-7.2-5.5l-1-1.6l-3.6-5l-1.1-2.5l-5.1,0.6l-0.5-1.1l-0.5-1l2-1.5l1.5-5.5l-1-1
			l-2.1,1.5l-1.5,2.5l-4.1-2.5l-1.5-0.5l-4.6,1.6h-1.6l-1-0.5h-3.6l-1,0.5l-1.5,0.5l-1.6-0.5l-1-0.4l-1-0.5l-1.6-0.5l-1-1.5
			l-2.6-1.5h-1.5l-2.6-1l-1.5-2v-3.1l-0.1-3.5l2.6-3.5l2-1.1l1.6-1l-1.1-0.5l-4.1-2.5l-1.5-1.5l-3.6-3l-4.2-5l-5.1-5l-2.1-1.5
			l-1,0.5v1l1.1,3.6l1.5,1l1.5,0.4l1.6,2.1l1,1v1h-1l-2,0.5l-1.6,2l0.1,3v1.6l2.5,2.5l1.6,1l5.6,4l1.1,1.5v1.5h-1l-1.1-0.5l-4.1-2.5
			l-4.1-3l-3.1-2l-7.2-4l-8.7-1.9l-6.1-2l-16.4-2.9l-5.2-0.5h-4.6l-1,1.1l-4.1,1l-1.5-0.5l-1.6-1l-2-0.5l-4.1,0.6l-3.6,2l-1,1
			l3.1,3.5l9.8,5l5.2,16.6l-16.9,0.1l1.5-2h6.2l3-4.6l-0.5-3.5l-3.6-0.5v-3.5l-5.7-0.5l0.1,7.1h-3.1l-0.1-6.1l-5.6,4.1l4.2,4.5
			l0.5,3l-8.2-5.5l0.5-5.5l3.5-3.1l2.1-2l1.5-0.5v-2l-1.1-0.5h-7.1l-3.7-8l4.1-5.1l6.1-2.6l-0.5-2l-9.2,4.1l-0.5-2l9.2-4.1l-0.5-2
			l-11.8,6.1l-17.4,5.2l-6.1,3.6l-1.5-3.5l1-1.6l1-2l1.5-1.5l1.5-2l1.1-2.1l-0.6-1l-1.5,0.5l-1,1.1l-4.1,5.5l-6.1,9.7l-1-4.6
			l-4.1,0.6l2.1,3l0.5,4l-5.1,7.1l-0.5-3.5v-3.5l0.5-2.1l0.5-1l-1.1-0.5l-1,0.5l-1.5,4.1l0.5,1.5l-0.5,1.5l-1,0.5l-2-1l-0.6-1.5
			l0.5-3l2-8.1l-4.6,1l-0.5-3l-1.6-1l0.1,2v3.6l0.5,2l0.5,3.5l0.1,1.5l-1.6,2.1l-0.5,1l-1.5,0.5l-1-0.5h-1.1l-1.5,0.5h-1l-1.5,1v1.5
			l1.5-0.5h2l1.1,0.5h2.5l1.1-0.5h2.5l1.5,0.5l0.1,1l0.5,1.5l-1.5,1.5l-1.1,2l0.1,1.5l0.5,1l-1,2.6l-1,3.5v2.5l0.5,2.6l1.1,4
			l1.5,4.5l2.1,3.5l1.5,3l0.1,2.6l-1.1-0.5l-1-0.5l-0.5-2l-0.5-1.5l-1.6-1.6l-1,0.6l0.5,2l2.1,3l0.5,2v1.5l0.5,1.5l-1,1.5l-1-1
			l-0.5-2l-0.6-2v-2l-1-1v-1l-1.6-1h-1l-1,1.5l1.1,3v2l-1,1.1l-1.6,1l-1,1v1.5l1.6,4l-0.5,1.1l-1,1.5l-1.1,2l-1,1l-1.5,0.5h-2.1
			l-1,0.1l-1.5-0.5v-1.1l-0.5-2l-2.1-1.5v-1l-1.6-0.5l-1-0.5l-2.5,0.1l-3.6-1.5l-2.1-1l-1.5-1l-1.6-1l-1.5-0.5l-1.5,1h-1.1l-1-0.5
			l-2-2h-1.6l-2-1.5l-1.6-0.5l-3.6-1.5l-4.1-1.9l-4.6-1.5l-5.1-3l-1.6-1h-4.1l-1.5-1l-1-1.5l-0.6-2l-1.5-2l-1.6-2l-1-0.5l-1-2
			l-2.1-1l-1-1h-2.1l-1,0.5h-1.5l-1,0.5h-1.1l-2-0.4l-1.5,0.5l-1.1,1.5h-1v-2.5l-2.1-2l-2-0.5h-2.1l-2,0.5l-1,1l-1.6,0.6l-1,0.5
			l-1.5,0.5h-1l-2.1,1.5l-1.5,0.5l-1.5,1l-1.6,0.1l-1.5-1l-1.6-0.5l-1.5-2l-1-0.5l-1.6-0.5l-2-0.5l-1,0.5h-1.6l-1-2v-3.5l-0.6-2
			v-1.6l-0.5-1v-3l-0.5-1.5l-1.1-1.5l-1-1.5l-0.5-2.5l-0.5-1l-0.1-1.6l-1-1.5l-1,0.1l-1-0.5l-1.6-1l-0.5-1.6l-1-2.5l0.5-1l1-0.5v-1
			l-0.5-1l-1.6-1.5l-1-0.5l-2.1-1l-0.5-1l0.5-1.5v-1l2-1.6l1.1-2.5l1-2.5l2.5-3.1l3.1-1.5l3-2l3.1-2.1l2.5-2.5l0.5-1.5l-0.5-1.5
			v-2.6l1-0.5l1-1.5l6.7-3.1l4-3.5l0.5-3.6l0.5-5l0.5-7.1l0.4-8.6l-0.5-2.5l-0.6-8l-2.6-7.1l-3-1.5l-0.6-2l1.6-0.5l-0.6-1.5h-2.5
			l0.5-2l-0.6-2.5l-3.6-11.1l-2.6-6l-2.1-6.1l-5.2-11l-5.2-13.6l-8.3-17.1l-7.3-16.6l-6.7-13.6l-5.7-9.5l-3.6-7.5l-1.1-1.5
			l-7.7-12.1l-1.1-3l-1.5-3.5l-4.2-4.5l-4.1-6.1l-4.1-4.5l-4.2-5l-5.6-7.5l-2.6-6l-4.7-5l-5.1-4.5l-5.2-5.5l-2.1-2.6l-4.1-4l-2-1.4
			l-8.8-6l-2-1l-6.7-3l-3.1-1.5l-4.1-1.5l-4.1-1l-4.1-0.4l-2.6,0.5h-6.6l-2.6-1l-2-0.9l-3.1-0.5h-3.1l-3.1,0.5l-3,0.5l-1,0.6l-3.1,1
			l-3.6-0.5l-8.2,0.1h-7.2l-1.5,0.5l-2.5,1.6l-2.6,1h-3.6l-4.1-0.5l-3.1-0.4l-3-0.5l-3.1-0.5l-3.6,0.5l-2.6,0.6h-5.6l-2-0.5h-3.6
			l-5.1,0.1h-5.7l-4.6-0.5l-4.6,0.1h-3.1l-2.5,0.5l-3.1,2.1l-1,1.5l-1.5,3.5h-1l-0.5,1l-2.1,0.1l-3.1-1l-3-1l-2.6-0.5l-2.1,0.5
			l-3.5,0.5l-2.6,1.6l-2.5,0.5l-3.1,0.5h-2.6l-4.6-0.9l-6.1-0.5l-10.8-0.4l-4.1,0.5l-4.6,1.1l-8.2,2l-2,2.1l-2,1.5l-2.6,0.5
			l-3.1,1.1l-5.6,1l-6.1,0.6l-4.6,1l-3.1,1.5l-2,1.6l-2.6,2.5l-0.5,1.5l-1.5,3l-1,3.1l-1,2l-1.5,1.5l-2.1,1.6l-3.6,1.5h-1l-1,1.5
			v2.5l-1.5,1.1h-1l-2.1-1.5l-2.1-3l-2.5-3.5l-3.1-4.6l-5.2-4.5l-5.1-4.5l-6.2-4l-5.2-3.9l-5.6-4.5l-5.2-2l-3-1.5l-3.1-0.5h-2.6
			l-3.1-1l-3.5-0.4l-3.1-1h-9.8l-5.1-0.9l-6.1-0.5l-5.2-1l-6.6-1.9h-5.2l-2-0.5l-2.6-0.5l-1-1l-2.1-1l-2.5-1.4l-3.6-0.5l-2.6,1
			l-2,0.5l-2.6,1.5l-2.5,0.1l-3.1-0.5l-4.1-1.5l-5.1-1.5l-7.8-4.5l-5.1-2.4l-6.2-4l-1.5-1l-2.6-0.5l-1-0.5l-2.6-1l-1.5-0.5l-3.1-0.5
			l-2.5-1.5l-4.2-2l-5.1-1.4l-4.1-1l-3.6-0.5h-2l-1.1-1l-2.5-1l-0.6-1.5l-2-1l-2.6,0.1l-2.5-1.5l-1.1-1l-3.1-3l-2.5-2l-4.2-2.5
			l-3.6-2.5l-3-1l-4.1-1l-6.2,0.1l-3.1,0.5l-1-0.5l-3.1-1.5l-2-0.5l-2.6,0.5l-5.1-5l-4.6-1.5l-2.6-1.4l-3.1-1.5l-4.1-2l-3.1-2.5
			l-2.1-1v-1l1.6,0.5l2,1.5l3.1,2l2.1-0.1l-0.1-2.5l-2-1l-2.1-1l-1.5-1l-1.6-2l-1-0.5l-1.5,0.1l-1-1l-0.6-1.6l-1-1l-2.1,0.1
			l-1.5-0.5l-1-0.5l-1,0.5l-1,3l-1.1,0.5l-1.5,0.5l-2-0.4l-3.6-1l-4.1-1l-3.6-1l-2.1-1.5l-2-1l-1.1-1.5l0.5-1.5l-0.5-1l-1-1l-1.6-1
			l-1,1v2.5l-0.5,1l-1.5,1.1l-0.5,1h-1.6l-4.6-1l-1.5,2l6.7,2h1.5l1.6,1l2-0.5h2.1l2,1l2.1,1.5l2,0.9l3.6,0.5l2.1,1l2.5-0.5l2.1-0.5
			h2l1.6-0.1h1l1.5-0.5h2.1l2,0.5l0.5,1v1h-5.1l-1,0.6l-3.1,1l-2.5,2.5l-3.1,1.1l-5.6-1.5l-4.1-1.5l-6.7-2l-3.1-1.5l-7.7-6.4
			l-4.6-2.5l-3.1-2l-4.7-4.5l-6.6-3.5l-4.2-3.5l-2-2l-9.8-8l-3.6-3.5l-5.7-4.5l-4.6-4l-3.6-2l-4.1-1.5l-2.1-0.5l-4.1,0.6h-2.5
			l-1.1-1l0.5-1l1-1l4.7,0.4l1-1.5l-3.1-2l-0.5-2l-1.6-1.5l-1.5-1l-1,3v1.6l-0.5,3l-1,1l-2.1,1l-2-1l-2.1-3l-2.6-5l-2.1-3v-2.5
			l1-1.1l2.6-2.5l-0.5-2.5l-0.1-2l-1-2l-1.5,0.5l-1.1,0.5l-0.9,5.5l-2.1,2.1l-3.6-7.1l-2.1-3l-3.6-9l-6.8-14.6l-2.6-8.5l-3.1-6.6
			l-3.1-6.5l-1.6-2.5l-1.6-5l-3.6-8.6l-2.6-7.5l-1.1-6.1l-1.1-3.5l-1-7l-0.5-1l0.4-2.6l1.1,1l1,1v1.5l1.1,2.1v3l1,1.5l1-1.5l2.1-0.6
			v-3l-4.2-7h-1.5l-2.6,0.5l-1-3.5l-3.1-5.5l-1.1-2.5l-3.6-5l-2.6-4.1l-3.1-1.9l-4.1-2h-4.1l-2,0.5l-3.1,0.5l-6.2-0.9l-3.6-0.5
			l-2-1.5l-4.1-1.5l-3.1-2l-4.6-2.4l-3.1-2l-3.6-2l-2.6-1.5l-4.1-3.5l-2.6-3.5l-3.1-4l-2.1-2l-3.6-4.1l-2.6-2.5l-4.6-4l-6.7-6
			l-3.6-3l-1.5-0.9l-2.6-1h-2.1l-3.5,1l-3.6,0.5l-1.6,0.6h-1.5l-2.6-0.5l-2.5-1.5l-2.1-2.5l-3.1-4l-2.1-4l-2-2.5l-2.6-2.5l-1.6-2
			l-3.1-1.5l-2-1.5l-3.1-4l-3.6-4.6l-4.2-4l-2.6-3.5l-3.1-2.5l-2,0.6l-1-0.5h-2.6l-3.1-1l-2.5-1l-3.1-2l-3.6-3.5l-2.1-4.5l-2.1-3
			l-1.5-1.5l-3.1-3.5l-3.6-1l-4.1-2l-2.6,0.5h-1.5l-2.6,0.6h-4.1l-1.5-0.5l-0.5-1l-0.6-1l-1-1l-0.5-2.5l-0.6-2.5l-1.5-1l-2-1l-1.6-1
			l-1-0.5l-2.1-1l-2,0.5h-4.6l-4.1-0.4l-5.2-1.5l-4.6-1l-2-2l-1.6-1l-3.6-2l-3.1-3l-2.1-2l-2.5-1l-2.6,0.6l-2.5,0.5l-1.6-2.5l-1-2
			l-1.6-1l-2.5-1l-1.6-1l-3.6-1l-3.1-3l-4.1-3.5l-0.5-1l-2.6-2.5h-6.1l-3.1,0.1l-1,0.5h-3.1l-6.2-1l-5.1-1.4l-4.6-2l-3.6-2h-4.6
			l-1.6,0.5l-2-0.4l-3.6-1h-7.2l-3.6,0.6h-2.5l-3.6,1l-3.6,1.5l-2,0.6h-1.6l-2.5-0.5l-2.1-1h-2.5l-4.7-0.5l-2.5,0.1l-4.6,1l-7.2,0.1
			l-3.6,1l-5.6-0.5l-8.2,3.6l-5.6,3.1l-2.5,2.5v2l1,1.5l0.5,1.1l-0.5,1l-2,0.5l-3.1,1l-1.5,1l-1.5,2.1l-2.1,2.5l-3,1l-2.1,0.5
			l-4.1,0.1l-2-1h-8.2l-2.6,0.6l-2.6-1l-2.5-1l-2.6-1l-2.1-2l-3.6-1l-1-1l-1-0.5l-1.6-1.5h-3.5l-2.6,0.6l-1-1l-1.1-1.5l-2.5-1
			l-3.1-2.5l-3.1-0.5l-2.6-1l-3.6-0.5l-8.2-4.4l-2-1l-4.7-2l-9.2-1l-2.6-0.4l-2,0.5h-3.1l-2.5,0.5l-3.6,1.1h-3.1l-3.1-0.5l-6.1-0.5
			l-3.6,0.1l-2.6,0.5l-1,1l-1.5,0.5h-1l-2.6,1.1l-3.5,4.5v2l-0.5,2.6l-2.1,1.5l-2-1l-4.1-1.5l-2.6-0.5l-2-1l-2.6-0.5l-7.2,0.1
			l-4.1,0.5h-2.5l-2.6,0.6l-1,0.5l-1.6-0.5l-0.5-1l-0.5-1.5l-2.1-3l-1-3l-1.1-1.5l-3-1.5l-2.6-2l-3.1-1.5l-3.1,0.5l-2-1l-1.6-1.5
			l-2-1l-3.1-1.5l-3.6-2.5l-4.6-3l-4.2-1.9l-3-1h-2.6l-4.1-1.5h-3.1l-2.6,0.6h-2.5l-3.6-0.5h-3.1l-3.6-1l-4.6-0.9l-6.2-3l-6.1-4
			l-5.7-3l-2.6-1.5l-1-1.5l-1.5-1.5h-3.1l-1.6-0.4h-1.5l-2-1l-1.6-2l-2.1-2.5l-1.5-0.5l-3.1-2l-2.6-0.5l-1-1l-3.1-1h-2l-2.1-0.5
			l-2.5,0.1h-4.7l-4,2h-1.6l-2.5-0.4l-1.6-1l-2.5-0.5l-2.6-1.5l-3.1-1l-3.1-0.5l-5.1,1.6l-4.6,0.5l-3.1,0.5l-3-1l-3.1,0.1l-3.6-0.5
			l-1-0.5h-1.6l-2.5,1l-1.6,1.6l-3,1h-2.6l-2.5-0.5l-4.7,0.1l-4.6-0.5h-3.6l-1.5-0.5l-5.6-2.5l-6.7-3.9l-2.6-1.5l-3.6-1.5l-8.7-2
			l-8.2-1.4l-4.1-0.5l-7.2,0.6l-4.6,0.5h-4.1l-4.6,1.1l-3.1,0.5h-5.6l-3.6-0.4h-5.1l-2.6,1h-1.5l-2.6,0.1l-2-0.5h-8.2l-5.2-0.4h-9.2
			l-4.1-0.4l-5.1,0.5l-1,0.5l-4.6,1.1l-4.1,0.5h-4.1l-6.7,0.6l-5.6-0.5l-4.6,0.6h-1l-5.7-1l-2.5-0.5l-4.7,1.1h-2l-2,1h-1.1l-2.5-1.5
			l-4.1-1l-3.6-1.5l-1.1-1l-2-0.4l-2.1,0.5l-1.5,0.5l-1.5,2.5l-2.1,1l-1,0.1l-1.5-0.5l-2.1,0.5l-3.5,1l-3.6,1.5l-6.7,2.1l-6.6-0.4
			l-1.6,1l-3.5,1l-3.1,1.6l-2.6,1h-3l-3.1,0.5h-2.1l-3-0.4h-2.6l-4.1,1l-4.6,0.1h-6.7l-3.5,1l-3.6,0.6l-6.2,0.5l-7.6,0.1l-7.7-0.5
			l-5.1,1.6l-3.6,1l-4.6,2.1l-3.1,1l-3,1l-2.6-1l-3.6-0.9h-5.6l-4.1,0.5l-3.6,1.1l-3.6,1.5l-1,1.5l-0.5,3.6l-1.5,1l-1-0.5h-1.1l-1-1
			h-1l-1.6-3l-1-1.5l-1-1l-2.6-0.5l-1.6-0.5h-2l-1.5,0.5l-0.6-4l-1-2.5l-0.6-3l-1-4.1v-4l-1.6-6l-0.6-4.6l-2-2.5l-2.6-4.5l-2.6-3.5
			l-2.6-2.5l-2.6-3l-1-1.5l-2.1-4l-1.6-1l-1.5-1.5l-1-1.5l-0.6-3l-1.6-5.1l-2.6-5l-4.1-7l-2.1-5l-4.6-5l-4.2-4.5l-6.2-3l-7.2-4.5
			l-6.1-2l-5.2-1.9l-6.6-3l-3.1-2l-3.6-3.5l-2.6-2.5l-2.1-1.5l-2.6-1l-3-0.5l-1.1-1l-4.1-4h-2l-4.2-0.4h-6.6l-3.6-0.5l-3.6-0.9
			l-3.6,0.5h-2.5l-1.6,1l-0.5,1l-1,0.5l-2.5,0.6l-4.2-0.5l-3.5,1h-1.1l-1.5-0.5l-0.5-1.5l-1.6-1.5l-1-1l-2.1-2.5l-1-0.5l-1-1h-1.6
			l-1.5,0.1l-1-0.5l-1.6-1.5l-0.5-1l0.5-1.6l0.5-2v-2.5l-1.1-1l-0.5-1.5l-1-2l-1.6-1l-0.5-2.5l-1.5-0.5h-1.1l-1.5,1h-3.1l0.5-1.5
			l1-1l1.6-0.5l1-1l1.5-1.1v-4.5l-0.5-2.5l0.5-1.5l2-1l1-1.6l1-2l0.5-2v-5.5l-1.1-1.6l-0.5-2.5v-2l1.5-1.5l2-3l1-2.1l1.5-4.5
			l2.1-5.1l1.4-6l2.1-3.6l3.5-8.6l2.5-5.5l3-10.1l4-9.6l2.5-8.1l2-4.6l2.5-8.5l2.5-10.1l1.5-5.1l1-4l1-2.5l0.5-5.6l0.5-2l-1.1-3
			l-1-2.5l-1.6-2l-1.5-2.6l-1.1-1.5l-1-2l-0.6-3.5l-1.5-3.5l-0.5-1.5l-2.1-4l-2.6-3.5l-1.6-2.5l-2-2l-2.1-2h-2.6l-1-1l-1-2.5l-0.6-2
			l-1-3.1v-3l-0.6-3v-2.5l-1.5-1.5l-2.1-1.5l-1.6-2l-0.5-2.5v-1l1-5.1l1.5-2.5l1.5-6.1l2.5-6l1.5-4.6l3.5-7.6l2.5-9.6l2.5-8l1-4.6
			l3-12.1l2.4-15.1l1.5-6.1l0.5-6.5v-2.1l0.4-6.5v-5l-1.1-4.1l-2.1-4.5l-4.1-4.5l-4.6-4l-3.1-2.5l-3.1-2l-2.6-2l-2.1-2l-2-1l-1.6-2
			v-2l-0.5-3l-0.1-5l-1-2l-1.6-2l-1-3.1l-1-2l-2.6-2.5l-2.6-1.5l-2.6,0.6l-6.1,0.5h-3.1l-1.5,0.5l-1.5,0.1l-2.1-1h-1.5v-1l1-2.6
			l0.4-2.5l1.5-6l3-8.1l1-6.1v-1.5l-1.5-2l-1.1-1v-1l2.5-5l2.1-3.1l2.5-9.1l2.4-12.1l3.5-13.1l1.5-4l3.5-11.7l3-11.1l2.5-8.5l3-12.7
			l0.9-7.5l2.5-13.1l0.9-8.6l2-11.6l0.4-10.1l1-5.5l0.5-9.1l-0.6-4.5l-0.5-5.1l0.4-8l-1.1-8.1v-6l-0.6-3.5l-2.1-15.6l-1.1-3.6
			l-2.6-9l-1.6-5.5l-3.6-5.6l-4.2-5.5l-3.1-3.5l-2.1-2.5l-4.1-2l-3.1-0.9h-5.6l-3.6,0.5h-1.5l-1.6-0.9l-2.6-4.1l-1-2l-2-0.5
			l-1.1-0.5l-1.5-0.4l-1.6-1l-2.5-2.5l-1.6-2.5l-4.1-4l-2.6-3l-11.8-5h-3.6l-2.1,1.6l-1.5-1l-3.1,0.5h-2l-3.1-3.5l-2.6-1l-8.2-0.4
			l-4.1,1l-4.1,0.5l-3.1,2.1l-1.5,0.5l-2,4l0.5,3.6v2l0.1,2l0.5,2l-1,1.5l-0.5,1l-2.6,0.5l-1.5-0.4l-2.6-1l-4.1-2l-1-1l-3.7-3.5
			l-4.1-2.5l-1.5-2.5l-1.6-2.5l-3.6-2.5l-1.6-2l-1.5-1l-3.6-1l-1-0.5l-2.6-1.5l-3.1-2.5l-2.6-1.5l-2-0.5l-2.6-0.9l-1.5-0.5l-2.1-2
			l-4.6-2.5l-3.1-2.5l-3.6-2l-1.6-1l-1.5-0.5l-2.1-1l-3.6,0.6l-2-1l-3.6-4l-1.6-1l-1.5-1.5l-0.6-1l-1-1h-2l-2.1-0.5l-1-1.5l-1.1-1
			l-4.1-1l-0.5-3l-1-2l-0.6-1l-0.5-1l-3.1-3.5l-7.2-3l-1.6-5.5l-3.1-4.5l-8.2-7.5l-6.2-6l-4.7-6.5l3-3.6v-1.5l-3.6-6l2.5-2.1l0.5-1
			l1-3l0.5-3v-7.1l0.5-2l1-1l2.6,0.5l1.5-2.5l-1.1-2.6l0.5-2l2-4l2.1-4.1l3.5-8l4-8.6l1.5-4.1l2-6.5l1.5-4.1l2-6.5l1.5-6.1l1-5
			l1-4.6l0.9-9l0.5-4.6l1-7.5l1-5.6l0.5-1.5l-1.1-6.5l1.5-1.6l1.6,1l1,2.5l1,3.1l-0.4,3l-1,2l-1.1,3l1.2,10.1l-1.5,6.6l0.5,6l-2.5,3
			l0.6,8.1l-2.6,3l-3,7.6l0.5,2.5l2.6-3l4.6-2.1l4.1-1.5l3-2.6l5.1-1l2.1-1.5v-1.5l-2.1-1.5l-1.5-2l-0.1-2.6l2.1-1l4.1,1l3.1-0.5
			l4-4.1l2.1-1.5l-1.6-2l-3.1-1l-4.1-1l-2.6-0.5l-2.5-1.5l-0.6-1.5h2.1l1-1.5l-2-1.5l-0.6-3l-3.2-11.1l-3-2.5l-0.1-3.5l-1.6-5.5
			l-2.5-2.5l-2.1-1l-4.6,3.1l-3.6,2.5l-1-2v-2l2.5-1.6l2.1-0.5l0.5-1.5v-2.5l-0.1-2l0.5-3v-5.6l-0.6-6l-1.5-5l-2.2-8.1l-2-5l-2.7-5
			l-2-5.5l-2.1-3.6l-3.1-6l-3.2-6l-3.1-6l-5.2-5.5l-5.6-5l-2.1-2h-5.6l-3.1,0.6l-1.1-1.5h-1l-1-0.5l-1.5,1.5h-8.2l-1.6,0.1h-3.6
			l-4.6,1.5l-2-0.5l-1.6-1l-2.5,0.1l-2.1,0.5l-1,0.5l-1.5-1v-1.5l-0.6-2l-0.5-1l-2.1-1l-4.1-2l-2.5-1.5l-2.1-0.5l-2.6-0.5l-1-3
			l-6.7-0.4l-4.1-0.5l-5.1-0.5l-2.6-1l-1.5-1l-1.1-1.5l-2.5-0.4l-1.6,1l-1.5,1.5l-1.5,0.5l-1.6,1.5h-2l-2.6-2l-2.6-2.4l-1-3.1
			l-3.1-3.5l-2.1-3.5l-3.1-4l-5.2-6l-1-2.5l-2.6-1l-4.1-5l-3.6-0.5l-1.6-2.5l-0.5-2l-2.6-1l-0.5-2l-2.6-2l-2.1-3.5l-1.5-3l-3.1-1
			l-3.1-4h-2.1l-3.6-4l-1-2.5l-2.6-2.5l-7.3-7.5l-1.5-3l-8.3-9.5l-1.6-0.5l-1.5-2.5l-2.1-2.5l-5.7-6.5l-5.1-6l-1.6-5.5l0.5-3.6
			l-2.1-2l-2.6-4l-1.6-3.5l-1.5-3l-0.6-3.5l-2.1-5l-4.1-3.5l-1.6-4.5l-2.6-7.6l-2.1-3.5l-5.1-5.5l-2.1-1l-2.6-2.5l-4.1-3.5l-2.1-3.5
			l-0.5-2l-1.1-4.5l-3.1-1l-2-2.5l-0.6-1l-2.6-5l-5.7-9l-7.7-6.5l-2.6-2l-4.1-2l-5.2-1h-1.5l-2.6-0.5l-3.5,0.6l-1,2.5l1.5,5h-1.5
			l-4.1-3.5l-1.6-4l-4.1,0.6l-1-0.5l-1.6-2.5l-1-2.6l-1.1-1.5l-4.1-3l-9.2-2.4l-4.6,1l-4.2-1.9h-4.1l-3.1-1l-3-1.5l-3.7-3.5l-3.6-3
			l-4.6-4l-2.1-0.5l-3,1.6l-2.6-1v-1l-2.1-2l-3.1,0.5l-2.5-1l-2.6-1.5l-2,2.1l-1,2l-1.6,0.5l-1-1.5l1-4.1l0.5-3.5l-2.1-5l-1.6-1l1-2
			l-0.5-1.5v-4l-2.6-5.6l-1.6-3.5l-2.6-3.5l-1.5-2.5l-5.2-4l-2.6-4l-1.6-3l-1-2l-1.6-0.5l-2-2l-1.1-1l-1-2l2-4.6l-0.5-5l-1.1-3
			l-2.6-4l-0.5-1.5l-0.5-3l0.4-4.6l-2.1-4.5v-2l1.5-3l0.5-2v-2.1l-0.5-2.5l-1-2l-1.1-1.5l-1-1h-2.6l-2-0.9l-1.1-2.1l-0.5-1.5l1-1
			l1.5-2v-7l-1.6-3.1l-2.6-3.5l-1-1.5l-1.1-1l-0.5-1.5l-0.5-2.5l-0.5-1.5l-2.1-2l-1.5-0.5l-2.1-3l-1.1-2l-2.6-3.5l-2-1.5l-1.6-2
			l-3.1-4l-2-2l-2.6-1.5l-1.1-1.5l-1.5-0.5l-1.6-2l-1-0.5l-1-1.5l-1.6-0.5l-1-0.5l-1.5-1l-0.6-1l-2.5-0.5l-1.6-1v-2l-0.5-1.5
			l-2.6-1.5l-4.6-3l-3.6-2.9l-2.1-2.1l-2.1-3.5l-2.1-3l-2.6-4.5l-3.1-3.5l-2.6-3l-0.5-3l-3.1-3v-1l-1-2.5l-1.6-2.5l-1.1-2.5
			l-1.5-1.5l-1.1-2l-2-1.5l-2.1-1l-2.5-1l-2.6-0.5l-2.6-1l-2-2l-1.1-0.5l-2.1-3l-2-1l-2.1-1h-1.5l-1.1-2l-0.5-1.5l-2-2h-1.6l-0.5-1
			l-1-1l-1.6-3l-1.5-1.5l-2.6-3l-2.1-1.5l-1.5-1l-3.1-2.4l-0.6-1.6l-0.5-2l-0.5-1.5v-1.5l-0.1-2l1.1-3l-0.6-2l-1-2l-1.1-1.5
			l-0.5-2.1v-1l1-2.5v-1.5l-1.6-1.5l-3.1-3l-1.5-3.5l-1.1-2l-0.5-2.5l-1-3l1-1.6l2-1.5l0.5-1.5l1-1.5v-1l-0.5-1.5l-1.1-1.5l-4.6-2
			v-4.5l0.5-1.6v-2.5l-0.6-1.5l-1.5-2.5l-1.1-2.5l-0.5-2l-0.5-3l-1.6-1.5l-0.5-2v-2.5l-0.6-3.1l-0.5-3.5l-0.6-4l-1-5.5l-1.6-6.1
			l-2.1-6l-0.6-3.5l-2.6-4l-2-2l-1.1-2.5l-1-3l-2.1-4.6l-2.1-3.5l-2.1-2.5l-3.1-2.5l-3.6-1.9l-2-0.5l-3.1-0.5l-1.5-1l-2.1-1.5
			l-1-1.5l-1.6-0.5l-4.1-3l-1.6-1.5l-2-0.5h-1.6l-4.1,0.1l-2-1l-2.6-2.5l-2.1-0.5l-3.5-0.5l-3.6-1h-3.1l-1.6-0.9l-2,0.5h-1.6
			l-2.5-0.5l-1.6-1.5l-2-1.5l-1.1-2l-1.5-3.5l-1.6-5l-2.1-4.1l-1.6-4.5l-3.1-4l-2.1-2.5l-1.5-1.5l-1.6-1.5l-0.5-1.5v-1l1-1l1-0.5v-2
			l-0.5-1.5l-0.5-1l-1.6-2v-5.1l-0.5-2.5l-2.1-0.5l-2.6-3l-2.1-2l-3-0.5l-2.1-2l-1.1-2.5l-1.5-1l-2.6-4l-1-1l-0.6-2l-1-2l-1.5-1.5
			l-1.1-1v-1l-1.6-4l-0.5-1l0.5-1l-1-3l-0.6-3l-1-4.1l-0.6-2l-1.5-2.5l-0.5-1.5l-1.1-2l-1-1l-1.6-2.5l-1.5-3.5l-0.6-2v-1l-0.5-2
			l-0.5-1.5l-1.6-1.5l-3.6-2l-4.6-4.5l-1.6-2.5l-1.6-2l-2-4l-2.1-3.1l-1.1-2l-1-2.5l-2.6-2.5l-2.1-2.5l-2.5-2.5l-1.6-1.5l-2.6-2.5
			l-2.6-3l-1.5-2l-1.6-2.5l-1.5-3l-1.1-2l-2.6-2.5l-2-1.5l-1.6-1l-1.5-0.5l-1-0.5l-2.6-2l-7.3-6.5l-2-3l-2.1-5l-3.7-3.5l-1.5-2.5
			l-1.1-2l-2-1.5l-2.1-1l-2-3l-1.1-1l-1-1.5l-2.1-1.5l-2-1h-1.6l-1.5-0.4l-2.1-1l-1.5-0.5v-1l-1.6-1l-1.5-1.5l-1.6-0.5h-1l-1-1v-1
			l-1.6-1.5l-2.1-1.5l-2-1.5l-1-0.5l-2.6-1h-3.1l-2.6-2l-3.1-3l-3.6-4l-3.6-2.5l-2.1-2l-2.6-1.4l-2-1l-2.1-1.5l-2-1.5h-2.6l-2.6-1
			l-2.6-2.5l-3-1.5l-1.6-1l-3.1-0.5l-2-1.5l-1.6,0.6l-3,0.5l-2.1,0.5l-1-0.5h-1.1l-1.5-0.5l-1-0.5l-1.6-0.5l-0.5-1l-1-1.5l-1.1-2
			l-1.5-1l-1-1l-2.1-1l-2.6-1.5h-1l-1-0.5l-1.1-1.5l-0.5-2l-1-1.5l-1.1-0.5l-1-0.5l-1.5-0.4l-0.6-1.1v-1l-1-4l-0.5-1l-1.6-4
			l-3.2-6.5l-3.6-8.6l-1.6-3l-2.6-2.5l-1.5-2l-2.1-2l-2-1l-1.1,0.6h-3.6l-2-3l-2.1-2l-1.5-2l-4.2-2l-0.5-1l-1-1v-1.5l-1.1-1l-1.5-1
			h-1l-1.1-1.5l-1.5-1.5l-1.1-3.5l-1-2l-1.6-2l-3.6-1l-2.5-0.5l-2.6,0.5l-1.5,0.5l-1.6-0.4l-2.1-2.6l-1-1.5l4.1-1l1-3l2-3.1l1-5.5
			v-4.5l-0.6-2.5v-4.6l1-1.5l0.5-1.5v-3l0.5-2v-2.6l-0.6-3l-1-3l-1.6-1.5l-1.5-1.5l-3.7-6l-1-1l-1.6-4v-1l1.5-1.5l0.5-1.6l-0.5-1
			v-1.5l1.5-3v-3.5l-0.5-2l-1.1-1l-1-1v-1l0.5-2.6v-1l2.5-5l0.5-3.5v-1.5l-1.1-3.1l-0.5-2v-5l-1.6-3l-0.5-1.5l-0.6-1.5l-2-2
			l-1.1-0.5h-1l-1-0.5l-1-1.5l-0.1-1.5l-0.5-2.5v-1.5l-0.5-2.6l-0.1-2.5l-1-3v-1.5l0.5-3l1-2l0.5-2.6l-0.1-3l-1.5-2.5l-1.6-2
			l-1.5-3.5l-1.1-5l-1.6-2.5l-2.1-4.5l-1-3.6l-1-1.5l-1.1-1v-2l0.5-2l1-0.5l0.5-1l1-1v-2.5l-1-4.1l-2.6-4l-2.1-2.5l-1-2.5l-2.1-2
			l-1.1-3.5v-5l-0.5-2l-1.1-3.6v-1l-1.1-3l-0.5-1l-0.5-1.5l-1-1.5l-0.6-1v-1l1.1-0.5l1.5-2l1.5-1.5l1.5-1.6v-1.5l-1-0.5l-1.1-3
			l0.5-2.5l-0.5-1l-0.5-1.5l-1.6-2v-1l-0.5-2l-0.5-1.5l-1.1-1h-1.5l-1-1l-1.1-1.5l-1.5-1.5l-1.1-0.5l-1.5-1.5v-1l-0.5-1l-0.6-2
			l0.5-1.6l1-0.5h1.1l1,1h1.5l1.6-0.5h1.5l0.5,1l4.2,2h2.5l0.5-1.1l2.1-1l1.5-0.5l2.1-0.5l2.5-0.5l1-1l1-3.1l-0.5-2.5l-1.1-3.5
			l-0.5-2l-1-2.5l-2.1-1l-0.5-1l-0.5-1.5l-0.1-2.5l0.5-1l1.1-1.6l1-2.5l1-2l-1.6-8l-0.6-2.6l-1.5-1l-1-1l-1.6,0.1h-1l-1,0.5
			l-1.1-1.5v-1.5l-0.5-1.5l-1-0.5h-1.6l-1-1l-1-0.5l-1.1,0.5l-1.5,1l-1,1l-1.5,3l-2.1-0.4l-2.6-1.5l-4.6-3.5l-2.1-1.5l-3-1.5l-2.6-1
			l-1.1-2l-1.5-4l-2.1-4l-1-1l-0.1-2.5l0.5-1.1l1.6-1.5h1.5l1-0.5h4.1l2.1-2.1l0.5-1l0.5-3l1-2.5l1-3l-0.1-1.5v-3.6l1-4l2-5l1.5-2.6
			l0.5-1.5h2.1l2,1.5h2.1l2-1l1.6-2.1l2-3l1-3l1-3.1l0.5-2v-2l0.5-2l1.5-1.5h1l0.5-1v-2.6l-0.5-2v-1.5l1.5-2l0.5-1.5h3.6l4.6,1.9
			l2.6,1.5l2.6,2l0.5,1.5l1.6,2.5l5.1,2l3.1,2l3.1,3l5.7,5l1,1l1.6,2.5l2.1,5l1,3.5l1.6,4.1l1,2.5l2.1,0.4l2.6,0.5l3.5,0.5l3.6-1
			l2.1-1l3.6-2.6l3-2l3.6-2.6l2-2l2.6-1.5l3-3.6l4.6-5l5-7.6l1.6-2l5-9.1l4.1-7.6l3.5-5.1l2-3.5l2.6-5.6l3.5-10.5l1-2.6l2-7l2.5-5.6
			l1-2l1-4.5l0.4-6.6l2.6-6.5l0.4-4.1l0.5-5.5l1.5-7.6l0.4-8l0.5-4.6v-5l-0.1-6.5v-5.6l-0.1-6v-3.5l2-1.1l1.1,2l1.6,5.6h1.5l0.5-1.5
			v-1.1l-1.6-5l-1-2v-1l-0.6-2.5v-1.5l0.5-2l0.5-1.5l2-3.1l-0.5-1l0.5-2v-5l1-5.1l1.5-3.5l1-3l1.4-8.6l2-6.5l2-5.6l0.5-3.5l1-2.5
			l1.6-1.6l1.5-1l2-1.5h1.6l2.5-1.5l4.6-1.1l3.1-1v-2.5l-1.6-0.5l-2.5,0.5l-5.1,1.5l-3.1,1.6l-2,1.5l-3.1,0.5v-1.5l-0.6-2.5l-1-3.5
			l-2.1-4.5l-1.1-3l-2.6-4l-2-4.6l-2.1-7l-1.6-5l-1.6-3.5l-0.5-3l-0.6-1.5l0.5-2.1l1-2l1.1-1v-2l-3.1,0.5l-1.6,1l-1-0.5l-1-1
			l-1.1-1.5l-2-4l-1.6-4.5l-1.6-4l-1.6-3.5l-1-3l-4.2-8.1l-5.2-11l-2.6-4.5l-2.6-3.5l-2.6-5.5l-2.6-6l-2.6-5.6l-3.2-7l-4.6-8l-4.7-8
			l-9.4-13l-3.6-5l-6.2-7.5l-5.7-6l-4.6-4l-4.2-3.5l-4.6-3l-7.2-3.5l-4.1-2.5l-2.1-1l-2.1-0.4l-1-0.5l-3.1-1l-2.5-0.5l-2.6-0.5
			l-3.1,1l-1.5,1.5l-2,1.6l-3.1,1.5l-2.6,2l-2,1.1l-1.5,0.5l-3.1,2l-1,1.5l-2,2.5l-1,1.6l-2.1,3l-2.5,2l-2.1,0.5l-1,1.6l-1.5,0.5
			l-1.5,1h-2.1l-2.1-0.5l-3.1-1.5l-1-1l-2.1-3l-1.5-0.5l-2.1,0.6l-4.1,0.5l-3.6-2l-4.6-1.5l-2.6-1.5l-2-0.5l-6.2,0.1l-7.1,3.6
			l-2,4.5v2l-1,3l-1,1.1h-4.1l-2.1,0.5l-2-0.5l-1.6-0.5l-1.5-0.5l-2.1,0.5l-2,1.1l-7.2,2h-1.5l-2.1,0.1l-1-0.5l-2.1-0.5h-2l-1,0.5
			l-1.6,0.5l-1.5-0.5h-1l-2.6-0.5l-1.6-0.5l-2.5-1.4l-2.1-2l-1.5-1l-1.6,0.5h-2l-1.6,0.5l-1.5-0.5l-1-1l-2.6-0.5l-3.6-1l-2.6-0.9
			l-4.6-1l-3.1-1l-3.1-2l-2-1.5l-2.1-1.5l-1-0.5h-1.1l-1-1l-1-0.5l-1.1-1l-1.5-0.5l-1-0.5l-1.1,0.1h-2l-1.6-1.5l-1.5-1l-2.1-0.5h-1
			l-1-0.5l-0.5-1.5l-1.6-2.5l-1.6-2l-2-2l-1.6-1l-1.5-1l-2.1-0.5l-3,1l-1.6-0.5l-1-1l-0.6-2l-0.5-1l-0.5-1.5l-1-1.5l-1.6-2l-1.5-1.5
			l-3.1-2l-3.6-1l-2.6-4l-3.1-3l-6.2-2.9l-3.6-3.5l-2.1-3.5l-3.6-3l-2.1-2l-1.5-1l-1.1-1.5l-2.6-1l-1-1l-1.5-1h-1.1l-1-1l-1.5-1v-1
			l-1.1-1l-1-2l-1.1-1l-3.1-2.5l-1-0.5l-1-2l-1.1-1h-2.5l-2.6-1.5l-1-2.5l-1.1-3l-1-2.5l-1.1-3.5l-0.5-2.5l-0.6-2.6l-1.5-0.4
			l-1.6-1.5l-1.5-2l-2.6-2.5l-2.6-3.5l-3.1-4.1l-1.1-3l-1.5-1l-2.6-1.5l-2.6-2.5l-1-2l-1-1.5l-1.1-2v-1.5l-1-1.5l-0.6-1l-1.5-1.5
			l-1.1-4l-0.5-1.5l-0.5-1l-1.6-1l-1-0.5l-1.5-1.5l-1.1-3l0.5-2l-0.5-1.5l-1-0.5l-1.6-2l-1-1l-2.1-1l-0.5-1l-1.1-3l-1.5-3l-2.6-3.5
			l-2.1-2l-2.1-2.5l-4.6-4.5l-4.1-4l-4.7-4l-9.3-5.5l-5.1,1.5l-2,0.6l-1.6,1l-2,1l-2,1.5l-1.1-0.5l-1.5-0.5l-0.6-2.5l-1-1.5l-1.5-1
			h-2.6l-1-1.5l-0.6-1v-2.5l1-2l0.5-2l0.5-3v-6.1l-0.6-2l-1-2.5l-3.1-2.5l-1.1-2v-1l-1-2l-2.1-2l-2-0.5h-2.6l-1-0.5l-1.6-1.5l-1.5-2
			l-1.6-0.5l-1-0.5l-1-1l0.5-1l0.5-2l-0.6-2l-0.5-4.5l-0.6-2.5l-2-5.6l-1.1-2.5l-1.5-2l-1.1-2l-2.1-2l-2.5-2l-1.6-2.5l-4.6-2.5
			l-1.1-1.5h-1.5l-2.1,0.1h-1l-1.5,1l-1,1l-1.1,0.5h-1l-1.5-1.5l-1.1-2l-1.5-4l-0.6-3.5l-3.6-4l-1.1-2.5l-1.5-1.5l-0.5-1.5l-0.6-1.5
			v-5.1l0.5-3l-0.5-3l-0.6-1l-1-1.5v-2l1,0.5l1.5-0.5v-4.1l-1.5-3l-0.6-5l-1.6-2.5l-1.5-1.5l-1.6-4l-1-4l-0.1-3.6l-0.5-3l1.5-9
			l0.5-2.1l1.5-4.5l0.4-2.5l2.1-3.6l-0.1-3v-2l0.5-1.5l1-2.5l0.5-1l-0.5-1l1-3.6l1-2.5l1-8.1l1-7l0.4-5.5l-0.5-2.6l0.5-2v-2.5l0.9-5
			l2-7.1l-0.5-4.5l0.5-2l1-2.6l-0.5-2.5l-0.1-2.5l1.6-2.5l0.4-3.5l0.5-2l0.5-4.1v-4.5l-0.5-2.5l0.4-3.5l0.5-3.1l0.5-4l-0.5-3.5
			l-0.6-1.5l-0.5-2.5l-1.5-1.5l-1.6-1.5l-1.6-2.5l-0.5-2.5l-1-4.6l0.5-1.5l-0.6-3l-0.5-2l-1.6-1.5l-1-2l-0.5-1.5l-1.1-1l-0.5-1
			l-0.5-2.5v-1l-1.6-1l-1-1.5l-1-1l-1.1-0.5v-1.5l-0.5-1.5l0.5-2.6v-3.5l-0.6-1.5l-0.5-2.5l-1.6-1.5l-1.5-2v-1.5l-0.6-3l-1-2.5l-1-1
			l-1.6-1l-1-1.5l-1.1-3.1l-0.5-4.5l-0.6-2.5l-1-2l-1-1l-1.6-2.5l1-3l-2.1-3l-1.5-2l-1.1-3v-2.6l0.5-2.5v-4.5l-0.6-5.5l-0.6-9.1
			l-1.1-8.5l-1.1-6.6l-1-5.5l-1.6-4l-4.2-8l-2.6-3.5l-4.6-6.6l-4.7-2.9l-5.6-2l-4.1-2.5l-5.2-0.5l-3.1,1.1l-2,0.5l-2,2.5l-1,1.5v2.5
			l-0.5,1l-1.1-0.5l-1-1.5v-5.5l-1.1-2.5l-0.5-2l-3.1-3l-2.1-2l-1.5-1.5l-2.6-4l-2.1-4.5l-1.6-2v-5.6l-0.5-1l-0.1-2.5l-0.5-1.5
			l-1-1.5v-1.5l-0.6-1v-1.5l1.6-1.5l0.5-1l-0.1-3.6l0.5-1.5l1.1-1.5l0.9-3.5l1-3.6l0.5-2.5v-4l-0.5-1.5l-0.5-2l0.5-2l-0.1-1.5
			l0.5-1.5l-0.5-1.1l-0.5-2l-2.1-1v-1l0.5-1.5v-1l-1-2l-1.1-1v-1.5l0.5-1.5l0.5-1l1.1-1l-0.1-2v-5.6l0.5-2.5v-2l-0.6-2l-1.5-2.5
			l1.5-2.6l2-0.5l1.6-0.5l0.5-1.5l1.5-1l1,1l1.1,1h1.5l1.6-0.5l2-1.1l1-1l1.6-1l1-2.5l-1.1-3v-1.5l1-1l3.1-1.6v-1.5l-1.1-3l1-4.5
			l-1-2.5l0.5-1l1.5-1.6l0.5-1l0.5-5l0.9-11.1l0.4-11.1l0.5-5.5v-6.5l-0.6-5.6l-1-2.5l-0.6-2.5l0.5-2l1-2.5v-3.6l-0.6-4l-0.5-5.5
			l-0.6-5.5l-1.6-7.1l-1.6-11l-0.5-2.5l-0.6-3.1v-4l-2.1-7l-0.6-7.6l-1.1-11v-6.1l-0.1-5l-1-4l-0.6-4.5l-1-3l0.4-7.1v-9.6l-1.1-5
			l-1.6-6l1-2.5l3.1-2.6l2-0.5l2-2.5l4.1-0.5l3.7,1.4l2,0.5l3.6-1l3.1-1.5l2-2.6l1.5-3l1-2.5l1-3l2.5-6.1v-1.5l-1-2.5l0.5-2l1.5,1h1
			l1.1,1.5l3.6,0.4l3.6,3.5l2.1,1h4.1l4.1-0.5l8.1-2.1l1.6,0.5h3.6l2-0.5l2.6,2l1-1.1h1.6l2.5-0.5h2.1l2,0.5l3.1-1l3.6-1.6l4.1,1
			l2.6,0.5l3.6,2l2,2.5l2.1,2l1.6,2l4.6,7.5l3.1,3.5l1.6,3l1.7,23.6l1.6,5.6v2l0.6,4.5v1l-1,2l1.5,1v1l-2.5,3.1l-1.5,1l0.5,1l3.1,1
			l0.5,1l-1,1l0.5,2.5l2.6,1.5l1,2.5l0.6,3l0.5,2l1,2.5l3.6,0.5l2.1-1l2.5,0.5l2.1,1l3.6,2.5l1,1l-2.5,3.5l-3,3v4.1l-2,2.5h-1.6
			l-1.5-1l-2.1-1l-1.5,0.5l-2.6-1.5l0.5-2.5l0.5-3l-1.1-1l-1.5-0.5l-2.5,3l-2.6,0.1h-1.5l-0.5,1.5v3l-2.1,2l1.6,2.5l1,2l-1.5,1.1
			l-2.5,1.5v2l0.5,7.5l1.1,5.6l2.1,6l1.6,7.5l0.1,5.1l-2,6v1.5l-2.6,5.1l-2,3l1.1,2l5.1-3l1,2l-3.1,2l-1,2.5l0.6,3l2.6,2l2.5,0.5v2
			l-1.5,3.1l-4.1,1l-2-0.5l-2.6,1l-1,2.5v4.1l1.1,3l-1.5,0.5l-0.5,1l1,1.5l2.5-1l3.6,0.5l1.6,2.5l1.6,3l1.5,3.5l1.6,1l2,1l3.1,1
			l3.1,1.4l1.1,2.1l-1.1,1.5l-0.4,4l2,2v2l-1.5,3l-1.5,1.1l-2.1-1.5l-2.5,1.5l-1.5,2.5l1.5,4.5l2.1,2l3.1,2.5l1,1l1.6,1l4.6,5.5
			l5.7,5.5l3.6,1.5l7.2,2l6.2,0.4l4.6-1l4.6-1.5l2.6-0.6l1.5,3l1.1,3.6l2.1,3l2,2l1.6,1l2.6,2.5l3.6,1.9l2,2l2.1,2l2.6,1l1,1l1.1,4
			l3.6,1.5l0.5,2l2-1l1.1-1l-1.1-1.5l-1.5-1.5l-2.6-0.5v-2l1.5-1h5.1l6.2,0.9l4.1-0.5l2.6-1.5l2.5-0.6l2.1,0.5l3.1,1.5l4.1,3.5
			l2.1,2l3.1,4l1.5,4l1.1,2.5v5.1l-3.6,1l-2.5,2.5l-1,4.6v4.5l0.6,3l2,0.5l2.1-2.5l-0.6-2.5l-0.5-2.1l2-3.5l3.1-2.5l1.5-1.5l2.1-0.1
			h2.5l4.1-0.5l2.6,1l2.6,2l2.1,2.5l-1.6,3l-2,5l-1.5,4.1l2.1-0.5l2-2.1l1.5-3l1.6-1l2-1l3.1,2l1.5,1.5l4.1-0.1l2.6,0.5l2.6,1l3.1-1
			l2.5,2.5l3.2,6l-0.5,2.5l-4.1,3.1l-4.1,3l-3.1-0.5l0.1,3v2.1l-3.1,3.5l-2.5,5.1v5l2.1-0.5l3-5.1l1-1l4.1-0.5h3.1l3.1,1.4l1.6,1
			l4.1-1l-3.1-3h-3.6l-4.2-1.5l-1.5-1.5l1.5-2.5l2.6-1.5l3.6,1l3.1,2.5l2,2h2.1l1.5-1.6v-1l2-0.5l1.1,3.5l1.1,4.5l2.6,4.6l5.1,5
			l2.1,1.4l1.1,4.1l1.5,2l2.6-0.1l3.1,1l2-0.5l1,1l-1,4l1.6,3.1l1.6,1.5l2-0.1l3.1-0.5l2-0.5v-2h-1.5l-5.2-2l0.5-2l1.6-1.5l-0.6-2
			l-1-0.5v-1l1-1l1.5-1.6l3.1-2.5l3.6-2l2.5-1.1l4.1,2l1.6,1.5l3.1,4l1.6,3.5l0.5,1.5l0.5,3.6l0.6,3l0.5,7.5l-0.4,8.1l2.1,5.5l1,3
			l3.1,2l3.1,4l6.2,3l4.1,2l2.6,2l3.1,3.5l0.1,2.5l3,0.5l3.1,0.9l3.6,0.5l1,0.5l1.6-0.5h1.5l1.1,1l2.5,2l3.6-0.5l2.1-0.1l2,0.5
			l1.6,3l2,1.5l3.1-1l3.6-2l3.1,0.4h4.1l4.6-1.5l4.1-2.6l3.1,2.5h4.1l-5.7-4l-1.6-2.5l2.1-4l4.5-2.6l3.1-1l4.1,2l0.6,2.5l2.6,6.5
			l-0.6-7.5l1-1.5l2.6-1.6l4.1-1l8.7-0.6l6.7,2.5l3-1.6l-0.5-4l-4.1-2.4l-7.7-0.5l-9.2,0.6l-7.2-0.5l-8.2-0.4l-7.7-0.5l-4.1,2.6
			l-4.1,0.5l-2.1-3l-0.5-2.5l-1.1-4l1-2.1l0.5-1.5v-3l-1.1-4l-1-3v-3l1.5-1.6l2-0.5l-0.5-1.5l-3.1-2l-4.1-2.5l-2.6-0.9l-4.6-1
			l-5.1-1l-5.7-2.5l-3.6-3l-0.5-2l-2.1,0.5l-2.5,3.6l-4.1,0.5l-4.6,0.1l-5.2-0.5l-1-0.5l-2.1-1l-1.5-2.5l-0.6-6l0.9-14.6l-1.6-5.1
			l-4.2-14l-3.1-5.5l-2.6-4.5l-4.1-6.6l-0.6-3.5v-1.5l-0.5-2l-2.1-0.5l-1.6-4.5l-3.1-6.5l-3.6-7l-3.1-5l-0.6-6.1l-0.6-4.5v-2
			l0.5-3.5l2-2.6l0.5-2.5l-1.5-2l-0.6-2.5l-1-2.5l-0.5-4.5l-0.1-1.5l-0.5-3.1v-6l-1.1-6l-1.1-1l-1-2l0.5-2.1l0.5-3.5l-0.5-3
			l-1.1-2.5l-1-3.5l0.5-2l-0.6-4.1v-4l-2.6-6.5l-1.6-6.5l-1.1-5.6l-2.6-3l-2.1-5l-1-1l-2.6-1.5l-1-2l-1.6-2h-1.5l-2.1-1.5l-1.6-3.5
			l-2.1-5l-3.1-7l-2.1-7.5l-4.6,1l-5.2-4l-0.5-2l2.5-4l1.1-1.6l-1.6-1l-5.1,1.1l-3.6,1.5l-1.5,2.5l-0.5,3.1v4l-1.5,3.5l-2.5,0.5
			l-2.6-1.5l-2.1-2.5l-3.6-2.9l-3.1-4.6l-3.6-2.4l-4.7-3.5l-1.5-3.5l-1.1-1.6l1-1.5l2.1,0.5h1.5l1.6-1l2-2.5l2.5-2.1l-0.5-2.5
			l-2.6-0.5l-3-0.9l-3.7-2.5h-1l-4.6-2l-3.1-4l-2.1-2.5l-0.5-2.5l0.5-1.5l1-1.1l1,1l0.6,2.6l1.5,2l3.6-0.1l3.1,1l2-1.5l0.5-4l1-3.6
			l1.5-2l2.1-1h4.1l3.1,1l2.5-0.1l3.1,2l1.1,2.5l2.6,5l2.1,5.1l2,1.5l1.5-2.6l-2.5-3.5l-2.1-5l-1.1-2.5v-2l1,1.5l2.6,2.5l2.1,0.5
			l0.5-2.5l-1.1-1.5l-1.5-3l-0.6-2.1l-1.5-2l-2.6-4v-2.5l-1.6-2.5l-1,1l-1.5,1l-1.1,0.1l-1-0.5l-1.6-5.6l-3.1-4.5l-3.6-2.5l-4.1-2.5
			l-3.6-3.5l-1.6-4.5l-1.6-4l-3.1-3l-3.1-1.5l-5.1,2.6l-2.1-1.5l-2-2l-2.1-2h-4.1l-1.5-1l-2.6-3l-5.2-2.5l-4.1-0.9l-5.1,0.5
			l-4.6,2.5l-5.7-0.9l-7.2-1l-6.1-2l-4.6-0.4v-1l1-3.6l-0.6-2.5l-0.5-1.5l-2.1-1.5l-1-1l-3.6-1l-0.5-2l1-0.5l2.5-0.5h2.6l2.6-1
			l2.5-2.1l1.5-3l2.6-3.5h1.5l3.1,0.4v-1l-1-1l-2.6-1l-2.6,0.6l-1,1.5l-2,1l-1.6-1h-3.1l-3.6,0.1l-1.5-2.1l0.5-1.5l4.6-2.5l3.1-0.5
			l3-1.6l1-1l2.1-1l1.5,1l2.1,0.5h2l6.7-1.6l1.5-1.5v-1.5l-1-4l-1.6-1.5l-1-1.5l1.5-2.1l1-0.5l0.5-2.5l-1.1-5l-1.6-8l-2.6-8.1
			l-1.6-3l-2.5-1l-2.6-3l1.5-1l2.1-1l2-1.5l-0.5-5.1l-1.1-5l-2.1-3l-1-4l-2.1-3l-0.5-1.5l2-0.5l1.5,0.5l2.6-1.1l-1-3.5l-2.6-3.5
			l-2.6-1h-2.6v-1.5l1-3.5l-1.6-2.5l-4.1-3.5l-4.6-2l-4.6,0.6l-3.6,1l-4.6,0.5l-2.1-1l1.5-1.5l0.5-4l-3.1-1.5l-3.6,1l0.1,2.5
			l-3.6,2.6l-1.6-1.5l-3.1-3.5l-3-0.5l1,4l0.5,1l1.1,2l-0.5,3l-4.1,0.1l-3.6-3l2-4.6l-3.6,0.6l-3.6-2l-2.6,1l-1.5,1.5l-1,2l-2.1-0.5
			l0.5-2l2.1-3.5l1-1.5v-2l-1.6-3l-2.6-2l-2-2l-1.1-5.6l-3.6-0.9l-7.2-2l-3.1,0.5l-2-1.5l-1.1-2.5l-0.5-1.5v-2l0.5-1.5l1-2.5
			l-0.6-2.6l-1.5-2l-1.1-2l-2-1l-2.6,0.1h-1l0.5-1.5l1-3.1v-2.5l-2.1-2l-2.6-2l-0.5-2l-0.5-1.5l-1.6-1.5l-0.5-1v-2l1.5-0.5l2.1,0.5
			l1,1.5l2.1,0.5l1.5-0.1l2.6-0.5h1.5l2.6,1l1,3l2.1,3.5l3.1,1.5l3.1,2h2.1l2-0.5l1-2.5l-2.6-1.4l2.1-0.7l2-1l0.5-1.5l-1.5-1.5
			l4.6-3.5l2-0.1l1.5-2.5V872l-0.5-3.5l2.5-2.6l4.6,0.5l4.7,1l2.5-1.5l2-2.6l2.1-2.5l2-4l2-3.1l1-3.5l0.5-4.5l-1.5-1.5l-2.1-1
			l-0.5-2l-1.6-3l-0.5-3l-1.1-2.6l1-4l1-1.5l2.1-0.5l1.5,1.5l2.6,2l3.6-0.1l4.1,0.5l2.1,2.5l3.1,3l5.1,2h6.2l8.1-5.6l5.2-3.1l3.5-1
			l5.2,0.5l4.1-0.1l3.5-2l4.1-3.6l2.6-2l1-2.5l0.5-2.5l1.5,0.5l2.6-1.1l2-3l2-2l2.1-2.6l1.5-4l1-4.5l3-1.1l3.6-2l2.6-1.5l1-3.5
			l0.4-4.1l2.6-3l2.5-0.5l3.1-1.1l2.1-1l3-2l3.1-2l5.6-1.1l7.2,1l8.7,0.4l8.3,1l6.6,2.4l7.8,2l6.6,1.5l4.7,4.5l3.6,5.5l4.7,9.5
			l4.7,6l5.6,3l5.2,2.5l5.1,1.9h4.1l3.1-2l2.6-0.5l3-0.6l3.1-1.5l4.6-3.6l6.1-5l5.6-4.1l8.7-2.1l11.8-4.1l9.7-2.6l4.1-1.5l0.5-2.5
			l1.5-2l1.6,0.5l2.5-0.1h3.6l5.2,2l3.6,0.5l3-2.1l5.1-2l4.6-1l4.6-2.1l5.7-0.5l3.6,1l6.7,0.9l3.6,1.5l5.6,2.5l3.6-0.1l4.6-0.5h2.6
			l2.6,1.5l2.6,2l3.6,2.5l3,1l3.6,0.4l4.1-0.5l7.7-0.1h6.7l1-1.5l4.1,0.5l2.6,1l1.6,2l3.1,1.4l5.1,1.5l7.2,1.5l6.7,1.4l3.6,1.5
			l3.6,1l5.1,0.5l5.1-0.6l5.7-0.5l3,0.5l1.6,3l3.1,2.5l6.2,2.5l3.6,2.9l5.1,1l4.7,0.5l2.5,0.5l2.6-0.6l3.6,2l2,0.5l3.7,2l2,1h4.6
			l2.1,1l3.1,0.4l3.1,0.5l3,1l4.2,3.5l15.9,3.4l13.9,2.4h3.6l4.6-0.5l3-1.5l3.6-1.6l2.6-1.5l3.5-1l5.2,0.9l1-1l5.1,1.5l9.8,5.5
			l7.2,2.9l4.7,3.5l5.1,1.5h3.1l2-2.6l1.6-1.5h1l2.1,1.5l0.5,2l3.1-0.5h1l0.5,2l3.1-0.5l1.5-1.6l3.1-4l2-2l2.6-0.6l2-1.5l-2.6-2
			l-2.1-2.5l-1-3.5l-1.6-2.5l-3.6-1.5l-4.6-0.9l-4.1,2l-2,2l-2.6,1.5l-3.6-1.9l-3.6-1l-2.6-1l-1.5-1.5l1-3l1.5-2.1l6.2-0.5l3.6-1
			l3-1.1l3.1-2l3.6-2.5l2-2.1l3.1-2l2-5l1.5-2.6l2-1.5l5.1-5.6l3.1-1h4.1l0.5-1.5l0.5-1l-1.6-1.5v-12.1l-1.6-6l-0.6-6.1l0.5-5
			l4.6-3.6l2.5-1.5l5.7-1.5l6.1,2.9l3.7,3l7.2,3.5l6.1-1l4.6-0.6l4.6-1l2.1-3.1l0.4-3.5v-4.5l2.1-1l6.6-1.6l4.6-1l3.6,1l2.6,0.4
			l4.1,2.5l3.1,3l5.7,2l4.6,1.5l1,1l0.1,4.5v5.5l1.1,3.6l2.6,5l-2.1,2l-4.1,2l-1,2.6l0.1,4.5l-3.6,0.5l-6.2-1.5l-4.6,1.6l-4.6,2
			l-3.6,2.6l-3.5,1h-2.6l-1-1.5l-1.1-4l-3.6,1l-2.5,3.1l-1.5,5l-2.1,3.5l-1,0.1l-2.5,3.5l-3.6,2.5l1.1,2l1.5,4.6l2.6-1.1l2.1,1.5
			l1.5,4l3.1,2.5l4.7,3.5l3.1,5l5.7,7.5l2,1.5l4.1-4.5l4.6-3.6l4.1-2l3.6-1l3-1.1l1-3l-2-5l-0.1-3l0.5-2.6l2-6l1-10.6l1.5-7.5l2-3.6
			l0.5-3l2.5-1l5.7,2l3.1,1.9l1,4.1l2.1,6l4.2,2.5l3.6,0.5l6.1-0.6l5.7,2v3.5l0.6,6l1.5,1.5l2.1,3l1.5,3l1.6,2.6l1.1,3.5l2,4l-1,4
			l-0.4,3.5l1.5,2l2.6,2h1v4l0.6,2.6v2.5h2.1l0.4-2.6l1-5.5l1-1.5l2.6-1.5l2.5-1.6l5.7-2.5v-2l-3.1,0.5l-3.6,1l-3.1,2.6l-4.1,0.5
			l-3.6-0.5l-0.5-2.5l1.5-3.5v-6.6l-1.1-3l-0.5-4.5l-0.6-2.5l2.6-3.6l2-3.5l2-2l1.6-1l3.1,1.4l2.5,1.5l1.6,2.5l0.5,3.6l-0.9,5.5
			l3.1,3l2.5,1l1-1l-1.5-2.5l-1.6-2.5v-2l1.5-0.6l1.6,1.5l3.6,2l3.6,3.5l4.1,2l4.6-2.5l3.6-3.6l0.5-1l3.1-1l3-2.6l3.1-3.5l2.5-0.5
			l2.1-0.5l2-0.1l9.4,11l2.5,2l4.7,1l2.5-2l5.7-0.6l11.2-1.6l2.1,1l5.6,1l0.5-3.5l-8.2-1v-2l-3.1,0.5l-7.7,2.1l-5.1-1.5l-4.1-0.4
			h-6.2l-1-2l-1.6-2.5l-1-3.5l-1.6-1l-5.6-2.5l-2.6,1.5l-7.1,5.1l-4.6,2.1v1.5l-2,2l-1.6,1.5l-4,3.6l-4.2-1l-1.5-4.5l-6.7-3
			l-2.6-0.5l-1.5-2l-1.6-2.5l-2.1-3.5h-2.6l-3.5-1.5l-4.7,0.1l-5.6-0.5l-2.6-1.5v-4.5l-0.6-3.5l-0.5-2.5l-2.6-2h-3.1l-3,2l-3.6,2.6
			l-2,1.5l-3.1,1.5l-2,1l-1.6-1.5l1-3l1-1l-1.5-4.5l-1.6-2.5l-3.1-3l-3.6-2l-2.1-2.5l-1-3.5l0.5-2.5l0.5-2.6l-1.1-3.5l-2.6-5l4.1-1
			l2.5-2.6l-4.1-1.9l-5.6-2l-5.2-2l-5.6-1.5l-5.7-1.4l-2.6-2l-6.2-2l-4,0.5l-3.1,0.6l-2.1,0.5l-2,1.5l-2.6,1h-2.5l-5.7,1.6l-4,3
			l-1.6,3.6l-0.4,3.5v3l-2.6,1l-1.5-0.5l-4.7-3.4l-6.7-4l-6.1-2l-7.2,0.6l-7.2,4l-4,3.6l-1.6,3.5l-2.5,2.6l-1,3l1.6,4.5l0.5,4
			l0.1,6.1l-0.5,4.5l-2,3l-3.1,4.1l-3,3l-3.1,2l-2.5,4.1l-4.6,2.5l-5.1,2.6l-4.1,1.5l-7.7,4.1l-4.6,2.5l-7.1,5.1l-5.2,2.6l-9.7,2.1
			l-4.6-0.5l-4.1-1.5l-5.2-1l-4.1-3.5l-4.1-1.9l-4.6-2l-1.6-2l-0.5-4l-0.6-4.1l1-3.5l2-3l-1.5-2.5h-1.6l-2.5,0.5l0.5-2l2.5-3.1
			l3.1-2.5l6.1-2.6l5.1-4l4.1-1.5l4.6-3.6l4.1-1.5l8.2-4.1l5.1-4.1l1-1h2l1.6,1l4.1,2l6.2,0.4l6.6-0.5l3.1-1l3.1-1.1l1.5-2.5
			l3.6-3.6l0.9-5l-0.5-6l-0.1-4.5l2.6-5.6l1.5-3.5l5-9.1l3.6-6.1l2.5-6.5l1.9-13.1l4.6-12.1l2-4.1l4.6-4.5l3-7.1l4.1-6.1l5.6-1.5
			l1.5-2.5l-3-2l-3.6-1.5l-2.8,0.7l-2.9,3.8l-6.1,4.6l-2.6,4.1l-1.5,2.5l-3,4l-2.5,5.1l-2.1,6l-2,6.1l-3,8.1l-3.5,11l-2.5,5.1
			l-4,7.1l-29.6,28.3l-3.6,0.1l-1.5,0.5l-3.1,2.5l-5.1,4.1l-2.5,1.5l-4.1,2l-5.6,4.1l-4.6,1.6l-3.1,2h-1l-3.6,3.5l-6.1,4.6l-6.1,3.6
			l-6.2,0.5l-4.1-2.5l-5.7-1.4l-7.2-3l-2.5-1.5l-5.7-2l-8.7-2.9l-6.2-0.5l-6.2,0.6l-5.1,1l-2,2.5l-1,4.1l-1,3l-4.1,3.5l-4.6,2.1
			l-5.1,4l-4.6,0.6l-4.1,0.5l-2,2l-4.1,2.6h-6.2l-8.7-1.9h-9.2l-3.1-1l-2.1-0.9l-0.5-2.6l1-0.5l3.1-0.5l5.6-2.5l2.6-0.1l0.5-1.5v-2
			l-0.6-3v-2l1-3l1.5-1.6l3.1-0.5l2.1-0.5l1-1.5l0.5-1.5l2-2.1l-1-1.5l-1.1-3l-1-1.5l-2.1-1l-4.1,0.1h-3.6l-6.6,1.5l-4.6,1.1h-2.1
			l-2,1.5l-4.6,1.1l-3.6,1l-3.6,0.5l-1.1-1.5l-4.1-2l-2,1.6l-3.6,2l-3.1,1h-3.5l-1.6-1.5l-2.1-3.5l-2-1.5l-2.1-1.5l-1.6-1.5l-2-3
			l-2.6-0.4h-4.6l-1.6-0.5l-2.5-1.5l-2.1-2l-4.1-1.5l-4.1-3l-3.1-1l-2.6-1.4v-1.6l2.5-0.5l2.6-1l3.6-2.5l2-0.6h1.6l2-0.5l3.1-2.5
			l2-0.5l3.1-1.1v-2.5l0.5-1.5l1.5-1.5l2.5-1.5l3.1-2.1l2.1-0.5l1-3l-1.1-3.5l-0.5-3.5l-2.6-4.1l-2.6-4l-4.2-6l-2.6-2.5l-2.5-2.5
			l-4.2-0.9l-3-0.5l-4.1,1.5l-6.7,2.1l-2.5,1l-4.7-0.5l-4.6-0.5l-3.1,1.6l-4.1-0.5h-2.5l-3.6,1.1l-3.1,1.5h-3.1l-2.5-0.5l-0.6-2.5
			l-0.5-2.5l0.5-2.5l1-3l2-2.6l4.6-8.1l4-7l3.6-5.1l3.6-4l3.5-1.1l3.1,0.5l2.6,0.5h2.6l2.5-0.5l4.1-3.1l2.5-2.5l3.1-1.6l3.1-1
			l3.1-0.5l1.5-1l1-2l1.5-3.6l1-3.5l-1.5-1.5l-2.6,3l-1.5,3.1l-3.6,2l-2.5,2.5l-2.1,1.1l-3.5,3.5l-4.1,3.1l-4.6-0.5l-4.7-1.5
			l-5.1,1.5l-4.6,4.1l-3,5.6l-4.6,6.5l-5,8.6l-1.6,0.5l-2.5,5.1v3l0.1,4.5l0.5,4l0.6,5.1l-0.5,3l-2.6,2l-3.6,1.1l-2,0.5l-1.5,1.5
			l1.5,1.5l1.1,1.5l2,0.5l1,0.5v1.5l-0.4,3.5l-0.5,2.5l-2,4.1l-3.6,6l-4.1,3.1l-3.5,5l-5.6,5.1l-5.1,4.1l-6.1,6.6l-3.6,3.5l-7.1,6.6
			l-5.6,5.6l-7.1,12.1l-2,3v3l-3.1,3.1v1.5l-5.6,2l-5.6,0.1h-3.6l-4.6-1l-5.2-0.4l-2-0.5l-1.1-1.5l1-2.6l-0.5-2.5l-1-2l-1.6-2
			l-1.5-0.5l-1.6-1.5l-1.5-2h-2.1l-1.5-2l-1.1-2.5l-1.5-1l-3.1-0.4l-1.1-2.6l-1-3l-2.1-2.5l-2.6-0.5l-2,0.6l-1,3.5l-1,3l-2,2.6h-2.6
			l-2.1-2.5l-2.6-2.5l-2.5-2.5l-1.6,1l-1,1l-2.6-0.5l-3,1l-6.2,0.1h-4.6l-2.6-2.5l-0.5-1.5l-4.1-2.5l-2.1-3l-1.1-2l-1-4l-1.6-1
			l-1.5-1.5v-1l-2.1-2l-1-2.5l-5.2-7l-3.6-4.5l-2.7-5.5l-2.6-4.1l-1.5-3l-3.1-3.5l-1.6-5l-2.1-3l-1-4l1-2l0.5-2.5l0.5-2.1l2-3
			l0.5-1.5v-3.5l1.5-1l1.5-2.1l0.5-2.5l-1-2.5l2-1l0.5-2l-3.1-4.5l-3.1-1.5l-3.6-2.5l-5.1-0.5l-4.7-1l-1-2l1-3l2.5-5l0.5-4.1v-3h1.5
			l0.5-2.5l-1-2.5l1-2l2-3.1l-1.5-2.5l-2.1-0.5l-1-0.5l-1.6-2.5l-1.5-1.5l-2.6-2l-3.6-0.4l-4.1,1l-2,1l-2.6-0.5l-0.5-2l-1.6-3
			l-1.6-5v-4l1.5-3.1l1.5-2.5l3.1-4l0.5-2.6l-0.1-2.5l-1.5-4l-1.6-4.5l1-4.5l2.5-2.1l3.1-2l2-2l3.6-2.6l4.6-2l2.6-3.1l1.5-3l0.5-3.5
			l1.5-4l1-3.6l-2.6-0.5l-0.5,2.1l-1,2l-2,7l-1.5,3.6l-2.6,2l-3.5,2l-3.1,2.1l-5.1,2.5l-3.1,3.6l-0.5,2.5l0.1,5.5l2.1,5.5l-1,4.6
			l-2,3.5l-1.6,2l-2,3.6l0.5,3.5l0.1,2.5l-1.1,1l-1.5,0.5l0.5,2l-0.4,4.1l-1.6,0.5h-3.6l3.1,3l3.1,0.5l1.6,2l3.6,6l2.1,1l4.1,1.5
			l4.6,0.9l1.6,1.5l0.5,3.1l-0.5,2l-0.5,3l-1.5,2.5l-0.5,5.1v2l1.6,5.5l4.1,4l3.7,2.5l3.1,4.5l0.5,5.5l-1.5,6.6l-0.9,4.5l2.6,7.5
			l0.5,4.1l5.2,9l5.7,9.5l6.2,7.5l2.1,2v3.5l2.1,2l1.5,0.5l1.6,2.5l2.6,6.5v3.1l-1.5,4l-2,0.5l-1.6-2l-1.5,2.5l-1.5,2.1l-4.1,1
			l-4.1,0.5l0.5-3l-1.6-3l-1.5-2.5l-2.6-3l-2.6-2l-2.1-2.5l-3.6-4.5l-3.1-6l-6.8-9l-1-4.1l-2.1-2l-3.1-4l-3.1-3l-2.6-3l-3.1-2.5
			l-4.6-2.4l-5.2-3.5l-5.7-4.5l-3.1-3.5l-3.1-2.5l-4.6-3.5l-5.7-4l-6.7-4l-7.7-3.4l-9.8-5.5l-6.7-3l-6.1-1.5l-7.2-1.9l-3.1-2l-1,2
			l1,2l-0.5,4l-1,2.6l-3,6l-3.6,4.6l-3.5,3.5l-5.1,4.1l-4.6,2l-3.6,4.1l-4.6,2.5l-4.1,0.6l-4.6,2l-2.1,0.5l-1.5-2.5l0.5-1.5
			l-0.5-1.5l-1.1-2l-2.5,2.5l-2.1,2.6l-2,1l-6.1,1l-6.2,0.6l-5.6,1l-6.2,1.1l-4.1,1l-3,1v1.5l2.5,2l4.2,4l-1,3v8.6l0.6,1l2.6,2.5
			v11.1l0.1,3.5l0.5,4l-1,4.6l-1.5,5l-2,4l-2.5,4.6l-1.5,5l-0.5,2v1.5l1.5,2l-0.5,1.1l-1.5,2l-3.5,7.6l-1.5,6l-0.5,3l0.5,3l1.1,5.1
			l0.5,3l1.6,4l2.1,1.5l2.6,1.5l2.5,1.5l2.1,2.5l2.1,2l3.1,1.5l3.6,1.9l3.6,1l3.1,3.5l5.1,1.5l0.5,2l2.6,1l1.6,2.5l0.5,2.5l3.1,2
			l1,3.5l0.1,3l-1,3.6l-1.6,1.5l-3.5,1h-2.6l-2.6-1.4l-2.6-2.5l-3.6-1l-1.5,2l-2.5,3l-1,2.1l-0.5,3l-1.6,2h-2l-1-0.5l-2.1,1.5
			l-3.5,2.6l-4.7-1l-2,0.5l-1,1.5l-1,1.6l-1,4l-0.5,3l1,1.5h2.6l2,1l1.1,3.5l1,3l1.1,3.5v2l2.6,2l4.6,1.5l0.5,1.5l0.1,2l-0.5,1.5
			l-3.1,1.1l-3.1,1l-2.5,2h-2.6l-3.1-1.4l-2.1-3l-3-0.5l-2.1-2.5l-2.1-1.5l-2,0.5l0.5,2l2.6,2l0.5,2l-0.5,1.5l0.1,6.6l2.6,5.5
			l3.1,3.5l4.1,2.5l4.1,0.4l3.6,1l2.6,3l2.6,2l1,3l0.6,2.5l1.5,2.5l-1.5,1.6l-0.5,1.5l1.5,2.5l2.6,1.5l2.6,2l1.6,3.5l2.5,0.5l2.1,1
			l2.6,2.5l2,0.4h5.7l1,1l2.1,2.5l2.6,5.5l2.6,2l1,2l-0.5,2l-2,0.6l-1.6,1.5l-1.5,3l-2.5,2.5l-3.1,2.1l-3.1-0.5l-3,1l-1.6-1l-2,0.5
			l-1,2.1l-0.5,1.5l2,1.5l2.1,3v1.5l-2-0.5l-2.6-1.5l-3.6-3l-2.1-3l-1.6-3l-0.5-2.5l1-4l1-3.6l-1.6-2.5l-1.5-2l-2.6-2.5l-2.1-1.5
			l-1.5-1.5l-3.6-3l-1.1-1.5l-2-0.5l-3.1,0.6l-4.6,0.5l-2.6,1l-1.5,1.5l1,2.5l1.6,5.1l1.6,3v3l-2.6,0.5l-1.5-0.5l-2.6,1l-1,1.1
			l0.1,3l2,2l1.6,1l2.5,1l1.6,2l0.5,2l2.1,2.5l2.1,1.5l3.6,2.5l4.1,3l3.6,0.9l1,2l0.1,2.1l-1,6.5l-0.5,1.5l1,2l0.6,2l1.5,2l1.6,3
			l0.5,2l0.5,1.6l-1.5,3l-1.5,0.5l-1.6,0.5l-0.5,1.5v2l0.6,2l-0.5,2.6h-2.6l-1.5-0.5l-1.6-1l-2.5-1l-4.1,1.5l-0.5,2.1l-2.1,1.5
			l-3.6,1.5l-4.1,0.6l-4.1-4.6l-2.6-0.4l-8.2-1l-2,0.5l-0.5,2.5l-1.5,1.1l-2.6,1l-0.5,1.5v4.5l-1-0.5l-1.1-5l-2-2v-1l-1.1-2l0.5-2.5
			l-0.5-1.5l-1-1l-0.6-1.5l-2.5-1.5l-3.7-2l-3-1l-1.1-1.5v-1l-1.5-3l-0.6-1.5l-0.5-1l-1-1l-1.1-0.5l-1-1l-0.5-1l-1.6-1l0.5-1
			l-0.5-1.5l-0.5-1l-1.6-1l-1-1l-0.5-1.5l-1-0.5l-1.1-1l-2-0.5h-1.6l-1-1l-1.5-1l-1.1-1.5l-0.5-1l-1.6-1.5l-1.5-0.5h-1.5l-2.1,1.5
			l-2.6-1l-1-2.5l-2.1-1l-1.5-0.5l-1-3l-2.1-4l-2.1-3l-2.1-2l-2-1.5l-1.1-0.5l-1-1l-1.5-0.5l-1.1-1l-2.5-0.5l-1.6-0.9l-2.1-0.5
			l-1,0.5h-1.5l-1.5,0.5l-1.6-1l-1-1v-1l-0.6-1l-1-0.5h-3.1l-1.5-0.5v-1.5l-0.5-1l-0.6-1.5v-1.5l-1-1.5l-1.6-1.5l-2.6-3.5l-3.6-4
			l-2-1.5l-1.6-1.5l-1.5-1.5l-2.1-1l-5.7-2.5l-5.6-2.5l-5.7-1.4l-3.6-0.5l-2.6-0.5h-2.5l-3.1,0.5l-3.6,2.1l-4.6,2l-4,3.6l-2.6,1
			l-1.5,1l-0.5,1.5v1l-1.6,0.6l-1-0.5h-1.5l-2.6-1.5l-1.1-2l-2-1l-1.6-2l-1.5-1l-3.1-1h-1l-3.1-0.5l-2.1-1l-1.5-3l-0.6-3.5l0.5-3
			l-2.1-4v-1.5l-0.5-2.6l-1.6-4l-4.1-4l-2.6-2.5l-2.1-2l-4.1-1.5l-2-1.9l-2.1-2l-2.1-1l-1.5-0.5h-3.6l-2.1-0.5l-1-0.5l-1.5-1.5
			l-0.6-1l-0.5-1l-1-2.5l-1.6-1.5l-1.5-0.5h-3.6l-0.5-1l0.5-2l-0.6-1l-1-1.5l-1.5,0.5l-2.1,0.5l-1-1v-2.5l0.5-1l-0.6-3.5l-1-3.5
			l-2.1-5.1l-2.6-5.5l-3.7-6.5l-3.1-5l-1.5-2l-3.1-2l-2.1-3l-1.6-2l-2,0.5l-2.1-1l-1-2l-2.1-5l-2.6-3.5l-1.5-2l-5.2-2.5l-0.5-2.5
			l-2.1-1l-2.6-2.5l-4.6-4l-8.8-6l-6.7-4.5l-6.7-3.9l-5.1-2.5l-6.7-2.5l-6.2-2l-6.7-1.4l-4.6-1l-4.6-0.5l-8.8-0.4l-4.6-0.8l-4.1-0.7
			l-3.6-1l-2.1-2.5v-1.5h1.6l2.5,2l5.7,3h4.1l5.1-0.1l6.2,0.5l2.1,0.2l2,0.3h2.6l2-0.6l0.5-1l-1-4l-1.1-2l-0.5-1l-0.5,1.5v1.5
			l-0.5,1.5l-2.5,1.1h-2.6l-2.6-0.5L708,791l-1.6-2l-0.5-1v-1.5l3-3v-9.6l-2.6-2l-0.5-1l-1.1,1l-0.5,1.5l-0.5,2.5l0.1,2.1l-0.5,1.5
			l-0.5,2l-1,2.5v3.5l-2.1,1.5l-1.5-0.9l-1,1l-3.6,0.5l-2.1-2.5l-2.5-0.5h-2.1l-0.5-1.5v-1l0.5-1l-0.6-1l-0.5-2.5l-2.6-1l-2-2
			l-0.5-1.5l1.5-2l1-3.1l1-2.5l1.5-2l2.1-0.5l2.5-3.1l2-1.5l2.6-0.5l1-3l0.5-1l-0.5-2.6l2-1l3.1-1.5l2.5-2l1-1.5l1.6,0.4l2-1.5
			l-1-1.5l-1.5,0.5H704l-1,1.1l-3.1,2.5l-2,1.5l-1-2.5h-2.6v1.5l-1.5,2.1l-1.5,3l-2.1,1l-3.1,1l-0.5-2v-3l-1.6-8.5l1-2.6l1-1.5
			l0.5-3l-1-1.5l-0.1-3l2.6-2.1l1-1.5l-1-2l-2.1,1l-1.5,1.6l-1,1l0.5,1.5v1l-1,2h-1v2l-0.5,2l-1,1.1l-0.5,1.5l0.5,1v2.5l-1.5,4.5
			l-0.5,3.6l-1,4l-1.5,2.5h-2.6l-3-0.5l-2.1-0.4l-0.5-1.5v-2.6l-0.1-2.5l-0.5-3l0.5-2.5l-0.5-2.5l-1.1-1h-1v2.5l0.1,3.5l-0.5,3
			l-1.1,1.6l0.6,2.5l0.5,3l1.6,2l2.5,1.5l1.1,1l1.6,5l-0.5,2l-1.6,1l-1-1l-3.6-3l-2.6-1.5l-1.5,0.1v1.5l1,1l2.1,2.5l4.6,3.5l3.6,3.5
			l2.6,4l3.7,4l2,1.5h1.1l0.5,1.5l-1,0.5l-1.6,2l-4.1,0.5l-3.6,0.6l-7.6,2.5l-8.2,3.6l-7.1,6.1l-4.6,6.5l-3,6.1l-1,5.1l1,5l1.6,1
			l1.5,0.5l2.1,1.5l2-0.1l2.6,1l3.1,2l1,1l1.1,2.5l-0.5,1l-2.6-1.4l-2.6,0.5l-1-1l-1-0.5l-1.6-1l-1-1l-3.6,0.5h-2.5l-2.6-0.5
			l-1.6-0.5l-1-1l-1,0.1h-1.6l-1,0.5l-2-0.5h-3.1l-2.1,0.5h-2l-1-0.5l-2.1-1l-0.5-1l-2.1-0.4l-1,0.5l-1,1l-1.6,0.5h-3l-2.6-1h-1.5
			l-0.6-1v-1l1-1l1.1-1.5l2.5-1l1.5-1l1.5-0.3l1.1-0.3l1.5-1.5l1-2l2.6-4.6l2-6l2.5-6.1l3-5.5l4.1-8.6l2.5-6.1l3.5-9.5l3.5-9.6
			l4.1-9.1l3.5-10.6l5-13.1l5.5-13.6l4-13.2l1-3.5l4.6-11.6l3.5-10.6l2.5-8.5l0.9-7.1l1-5l-0.5-5.6l-0.1-3.5v-3.5l-1-3.5l-0.6-2.5
			l-0.5-1.5l-1.6-1.5l0.6-1l-0.1-2.1v-2l-1.5-1.5l-1.6-2l-3.1-2l-1.5-1l-1.5-0.7l-1.6-0.8v-1.5l1-4l0.5-1.5l-0.6-2v-3.5l0.5-2.6
			l-1-3l-0.6-3l-1.5-2.5l-2.1-3l-1.7-1.9l-2.7-3.3l-2.3-2.8l-1.1-3V579l-1.1-1.7l-1-1.8l-1-0.5l-1.6-1l-1-2.5l-1.1-1l-1-3l-1.6-4.5
			l-2.1-2l-0.5-3l1.5-1l0.5,1l3.7,2l4.1,3l2,0.9l1.1,5.1l2.6,2.5l1,3l2.1,1l3.6,3.5l16.1,20l1,3h1.6l1.6,5.5l-1.6,1l-1.5,0.6l-1.5,1
			l0.5,1h2.5l1.6,0.4h2l1.1-0.5l0.5,1l2,1.5l0.6,1.5l1,2l1.5,0.5h1.1l1,1l3.7,10.6l0.5,2h1.5l1.1,2l0.5,1v2l0.5,1l1.6,2l2.1,1l1,2.5
			l1.6,5.5l1,1.5h1.1l3,1.5l0.6,1.5l1,0.5l-1.5,2v3.1l2,1.4l1.6,1.5l0.5,2.6l0.6,1.5l1.5,1.5l1.1,1l2,3l1.1,1.5l0.5,1.5l-0.5,1.5v3
			l2.1,2h1l2.6,0.5l1.5,1l1.1,3l2,1.5l2.6,3.5l0.6,2l3.6,4l33.1,35.5l1.5-0.5l5.7,2l1.5-1.5l0.5-2.1l-1-2l-3.2-5l-5.6-6l-2.1-3.5
			l-0.5-1l-0.6-1.5l-1.5-0.5l-3.1,1.5l-3.1-1.4v-8.6l-1.1-0.5l-1-0.5l-2.1-1h-2l-1-0.5h-1.1l-2-2l-0.6-1.5l0.5-2l1-2l0.5-2.5l-2-3
			l-1.1-1l-2.5-2l-1.6-1l-1-2l-0.6-3.5l-0.5-1.5l-0.5-1.6l-2.1-2l-1.5-0.9l-2.1-0.5l-1.5-1.5l-1.1-1v-2l-0.5-1.6l-1.6-1l-2.5-0.4
			l-0.6-2.6l-2-3l-1.1-2.5l-0.5-2.5l-0.5-1l-0.6-2l-0.5-1.5l-2.1-1l-2-2l-1.1-2l-1-3.5l-1.6-3V634l-1-1.5l-1.1-1l-4.1-11.6l-3.7-4
			l-1.5-1l-3.2-12l-1-2.5l-0.6-1l-0.5-2.1v-4l0.5-3l1.5-5.5l0.5-1.6v-1.5l-3.1,3.1l-2,2.5l-1.5,3l-2.1,1l-2.1-2l-2-2.5l-1.1-1.5
			l-2-1.5l-1.1-1l-2-0.9l-2.1,1l-2.5,4l-2.1,0.5l-0.5-2.5l0.5-3v-1.5l1-3.5l-0.5-3.1l-1.1-5.5l-2.6-2.5h-1.5l-2.1,0.5l-2,2.6l-2.6-2
			l-2,0.5l-1.6,1l-0.7-0.9l-0.8-1.1l1.5-4l1-2.6l1-3.5l0.5-2.5l0.5-3.5l-0.1-2.5l-0.5-2.1l-0.5-3l-1.1-3l-2.6-5.5l-1.1-2.5l-1.5-2.5
			l-0.5-1v-1.5l-3.6-2.5l-2.6-2.5l-1-0.5l-1.6-2.5v-1.5l-0.5-2.5l-0.6-2.1l-1.2-0.7l-1.9-1.2l-1.5-0.5l-5.3-15.1l-2.5-0.5h-1
			l-1.6-1.5l-1.6-2l-2-3l-2.6-2l-2.6-1.5l-3.6-3.5l-4.6-3.5l-6.2-1.4l-6.2-0.5l-4.1,1l-3,1.1l-4.1,2.5l-3.6,2l0.5,2l0.5,1.1l1.1,0.4
			l1-0.5l1,0.5l1.1,1v2.5l-1,1.6l-1.1,0.5h-3l-1.6-0.5l-2-1l-0.6-1l-1.5-2l-0.5-1.5v-2l-0.6-1l-1.5-1.5l-0.5-2l-1.1-2l-0.5-2.5
			l1-2.1l-2.1-1l-1-1l-1.6-1.5l-1-1.5l-1.5-2l-1.1-1l1-1.5l1.6,1h1.5l1-2l1-2.5l0.5-4.1l2-9l1.5-8.6l-0.1-7l-1.1-7.6l-1.5-6l-1.6-4
			l-3.6-5l-2.1-3.6l-1.1-5l-2.6-6.5l-1.1-3.5l-2-2.5l-1.6-1l-1.5-1l-0.5,1.5h-1.1l-2-0.5l-0.5-2.5l0.5-1v-2.5l-0.6-2l-1-5.6l-1.1-3
			l-1.6-4.5l-2.6-4.5l-2.5-1.5l-4.2-4l-1.5-2l-1.1-2l-0.5-2.5l-0.5-1.5l-2.1-0.5l-1-1v-3l-1.1-6.6l-1.6-2h-3.1l0.5-1.5v-1.5l0.5-3
			l-0.5-2l-0.5-2.5l-0.6-1.5l-1.5-1.5l-2.6-3l-2.6-1l-2-0.5H516l-1.5-0.5l-0.5-1.5l-1.1-1l-1-1.5l-2.1-1.5l-2.5-1l-0.6-1v-1.5
			l-2-0.5l-1.6-2l-0.5-1l-1-1H499l-1.1-2.5l-2.5-3l-1.6-2l-1.6-1.5l-3-1l-2.6-3l-6.2-5.5l-4.7-3.5l-3.1-1.5l-3.6-2l-2.5-1.4
			l-1.6-1.5l-1.5-1l-1.1-1l-2-0.5l-2.1-1l-2-0.5l-1.1-1l-2.5-0.5l-1.6-1l-1.5-0.5l-4.2-2l-2-2l-1.6-1h-2.5l-0.6-2l1.1-1.5l-1.6-0.5
			l-1-1.5l-0.5-1l-0.6-1.5l-2.5-0.5h-2.1l-1-0.5l-1.6-1l-0.5-1l-2-0.4l-1.1,0.5l-0.5,1.5l-2,1l-0.5-1.5l-1.6-0.5l-0.5-1.5l-1-1.5
			l1-2.5l-0.6-1l-2,0.5l-2.1-1.5l-3.6-3.5l-1.5-3l-2.1-1.5l-0.5-3l0.5-1.6l-1.6-1.5l-0.5-1l-1.6-1.5l-2.5,0.1l-2.1,0.5l-1-2.5
			l-0.5-1l-1.1-0.5l-1.5-1l-2.1-2.5l-0.5-1.5l-1.6-0.5l-1.5-1h-1.5l-2.6-2l-1.6-1.5l-1.5-2l-0.5-1.5h-2.6l-1-0.5l-1.6-0.5l-0.5-2.5
			l0.5-2.5l-0.6-3.6l-1.5-1l-3.1-0.4l-2.1-1.5l-3.1-2.5l-3.5-0.5l-1.1-1l-1.5-0.5l-0.5-2l-1.6-2l-1-1h-4.7l-1-1l-2.1-3l-1-2.5
			l-0.5-1.5l0.5-1l-1.1-3l0.5-1.5l1.5-2.6l1.1-2l-1.6-1l-1.5-2l-1.1-2l-1-2l-1.1-3l-1.5-2.5l-1.6-2l-2.6-2l-2.5-1l-1.6-0.5l-2.5,1
			l-1.1-1.5l-1-2l-1.1-1l-2-2l-3.1-1.5l-1.6-1.5l-1-1.5l1-1.5l1.6-0.5l1-0.5l0.5-2v-1.6l-0.6-2l-2.5-1.5l-2.6-0.9l-3.1-3.6l-3.1-5
			l-3.1-3.5l-1.6-2.5l-1-1.5l-0.6-2l-0.5-2.5l-1-1.5l-1.6-1.5l-0.5-2l-0.5-1.5l-2.1-2.5l-1.6-1.5l-1-1.5l-1-2v-1.5l-3.1-4.1l-1.1-1
			l-1-1l-1.6-1.5l0.5-1l1.6-1.5l-2.1-4.5l-1.6-3l-1-1l-1.6-1.5l-0.5-3l-1-2l-1.1-2l-2.1-2l-2-1.5l-2.1-1.5l-3.6-1l-2-2l-1.6-2
			l-1-2.5l2-0.5l0.5-2.6l-0.5-1.5l-0.6-2.5l-0.5-1.5l-1-0.5l-2.1-1.5l-1.5-4.5l-0.6-2.5l-2.1-3l-1-1l-2-1.5l-4.2-3l-2.6-2l0.5-1.5
			l-1.5-2.5l-1.6-2l-0.5-1l-2-1.5l-1.6-2l-1-2l-2.6-1l-5.2-3l-3.1-1.5l-1.5-2l-1.6-1H230l-2.1-1l-1.5-2L224.8,2l-1-1v-2l-1-2l-2.1-2
			l-1.6-1.5l-3.6-2l-2-1.5l-3.1-1h-1.6l-3,0.5l-2.1-1l-2.6-3L199-18l-1.5-1.5l-1.6-1.5h-1l-1.5-0.5l-1.1-1.5v-1l1-3l-0.5-2l-1-1
			l-2.6-1.5l-1.6-2v-2l-0.5-3l-1.1-3.1l-0.5-1l-1-1.5l-3.1-2.5l-1.6-1.5l-0.5-1l-0.5-2v-1.5l-2.1-1l-1-1l-1.6-0.5l-1-1l-0.5-1.5
			l-1-0.5l-2.1-1.5l-1.6-1l-2-1.5l-1.6,0.5l-1,0.6l-1-0.5v-2.6l0.5-2l0.5-1l-1-0.5l-4.7-4.5l-6.2-6l-2.6-2.5l-1-1h-1.6l-1,0.5
			l-1.5,0.6l-3.6-2l-2.6-2.5l-0.5-1.5l-1.6-1.5h-2l-2.1-0.5h-1l-1.5-0.5l-0.1-1l2.6-1l1-1.6l-0.5-1l-1-1l-1.1-2.5l-0.5-3l-1.6-2
			l-0.5-1.5l-2.1-2l-3.1-3l-2-1.5l-2.1-1l-3.1-0.5l-1-1l-0.5-2l-1.6-0.5l-2-1l-1.6-2.5l-2.6-3l-1-1l-1.6-2l-1.5-1.5l-1.6-2.5l-3.1-1
			l-1.5-2l-1-0.5l-2.1-2l-2.1-4l-1-2l-1.1-3l-0.5-2.5l-1.1-3l-0.5-4.1l-0.5-2l-1.1-3l-1.5-2.5l-2.6-2.5l-1.6-2l-2-1.5l-1.6-1l-2-1
			l-1.6-1.5l-1-1l-1.1-1.5l-1-0.5h-2l-2.1-2l-0.5-1l-0.6-2l-1.5-3l-1.6-3l-1.5-2.5l-2.1-2.5l-2.1-1.5l-4.1-3.5l-4.1-4.5l-2.1-2.5
			l-1.6-3l-1.5-1l-1.1-2l0.6-1.1l0.5-2l-1.1-1.5l-2.6-1l-1.5-0.5l-1.6-2l-1.5-0.5l-2.6,0.1l-1,0.5h-2l-1.1-1l-0.5-1.5l-0.5-2v-2.6
			l-0.6-2l-0.5-2v-1.5l1.5-1l1-0.5l0.6-1l0.5-2l-0.6-2l-0.5-2.1l-1.6-1.5l-1-1.5l-1.6-3l-1-4l-1.6-3.5l-1.5-3l-2.1-2.5l-1-1.5l1-2
			l1.5,0.4l1.6,0.5l2.5,0.5h1.6l2-0.5L27-259l4.5-5.1l4.6-6.6l4.6-7.5l5-12.1l5.1-9.1l3.5-9.1l4-10.6l1.5-5.6l1.5-3.5v-3l0.5-2v-3.1
			l0.5-1.5v-1l1-2v-1.5l-1.1-2l-0.5-2l-1-2l-1.1-1.5l0.5-2l1-1.6l1.1-0.5l-0.6-1.5v-2l0.5-1.5v-3l-1-2l-1.6-1.5l0.5-3.1l0.5-1.5
			l0.5-1l-2.1-2.5l-1-2.5l-1-1.5l-0.6-2l-1-2.5l-1-2l-0.6-3.5v-2.1l-0.5-2l-1.1-2.5v-1.5l0.5-1v-1.5l-1-4l-0.6-2.5l-1.5-3.6
			l-1.1-3.5l0.5-2.5l0.5-1.5l0.5-2l-0.5-2.5l-2.1-1l-1.5-2.5l-1.1-2v-4.1l1.5-3l-1.6-2.5l-1.5-2l-1-2l-0.1-2.5v-1.1l1-1.5l-1-2.5
			l-1-1.5l-0.6-2l0.5-2l-0.5-2l-3.1-3l-2.1-2l-2-2l-1.1-0.5h-2l-1.5,0.5l-1.6-0.5l-1-4l0.5-1l0.5-1.5h1l0.5-1.6l-1-2l-1.1-1
			l-0.5-1.5l0.5-2l1-0.5l1-1.5l1.1-1l-0.1-2.5l-1-0.5l-1-1l-1.1-1v-1.5l-0.5-2.1l-2.1-0.9l-1.5-1.5l-1-1.6l-1.6-3.5l-1.6-2l-2-2
			l-0.5-1l-0.6-1v-3l-1-1.5l-1.1-1l-1-2l-0.5-2.5l-0.6-2.5l-1-1l-1-2.6l-1.6-2L5-521.2l-1.5-0.5L2-522.1l-2.1-1.5l-0.5-1l-0.5-2.1
			l0.5-1l1-1l0.5-1v-2l-0.6-2l-2-5l-0.6-2l-1-2.6v-1.5l2-1l1,0.5h1.6l0.5-1l-0.5-1l-1.1-2l-1-2.5l-1.6-1l-1-1.5l-1-2l0.5-1l1-1.1h2
			l2.1-1v-1l-1-1l-1.6-1.5l-2.6-1.5l-1-1v-1l2-5.1l1-1.5v-1l-0.5-1l-2.1-0.5l-1-1l-1.1-4l-1.5-6l-1.6-1.5l-1-0.5l-0.5-1v-1l1-1
			l1.5-0.6l0.5-2l-1-1l-1.1-0.5l-0.5-1l-1.5-1l-0.5-1l-0.1-3l-0.5-1.5l-0.5-2v-2.5l-0.6-2.5l-1-1l-1-0.5l-2.1,1l-1,1h-1.5l-1.1-2
			l-1.5-3l-0.6-2.5l0.5-2v-2.1l1-3l-0.5-1v-1l-0.5-1v-4l1-1.5l1-0.6l1,0.5l1.1,0.5l0.5,1l1,1l1-2l-0.5-1.5l-0.5-2l0.5-2.5l-0.1-1
			l1.6-1.5v-3.1l-1.1-1l-1,0.5l-1,0.6l-1.1-0.5l-2,0.5l-1,0.5h-2.1l-2-1l-2.6-2l-0.5-2.5l1-3.5l1-2.1l2-1l2.1-0.5l2.5-0.5l1-1.5
			l0.5-1.5l-0.5-2.1l-1-2.5l-0.5-1l-1.1-1l-1.5-1l0.5-1.5l1-2v-1l-0.5-1l-1.1-1l-1,0.5l-2,0.5l-1.1-1.5l-0.5-1l-1-1.5l-1.1-1l-1-1
			v-1.5l-0.5-1l-0.1-2.5l-1-1.5l-1.5-2.5l-0.6-1.5l-2-2.6l-2.1-3l-0.5-2.5l0.5-1.5l0.5-1l1.5-1l1-1l1-0.5l-0.5-1.5l-0.5-2.6
			l-0.5-2.5l0.4-2l1.1,0.5l1.5,1.5h2.1l-0.5-2l-1.1-2l-1.5-1.5l-1.6-1l-1-1l0.5-2.5l1-0.6l1.5-1l2.1-2l0.5-1l-1.1-1v-1.5h1.1
			l0.5-1.5l-0.6-1l-1-1.5v-1.6l-0.5-1v-1.5l1-3l1-1l0.5-1.5l0.5-1v-1l-1-1.5l0.5-1.6h1l0.5-1l-0.5-1.5l-0.6-1l-1.5-1.5L-34-751l1-1
			v-6l-0.6-1.5l0.5-1.1l0.5-1l1.6-1.5l1.5-0.5l1-1l0.5-2l0.5-3.6v-3l-0.5-2.5l-1.6-1l-1-1.5v-1l1.5-2h4.1l1.5-1.1v-1.5l-0.5-1
			l-1-1.5l-1.6-0.5l-1-0.5l-0.5-1l-1.1-0.5v-2.5l-0.5-1.5l-1-1l-0.6-1l0.5-1.5h1.6l1,0.5l0.5-1h1l1.6-1.6l-0.5-1l-1.1-1.5l-0.5-2
			l0.5-1l0.5-2l1-2v-2l-0.5-1.1l0.5-1.5l1.5-0.5l0.5-2l1-1.5l0.5-1.5v-2.5l0.5-1l0.5-1.1l1.5-1.5v-2l-0.5-1.5v-2l0.5-1.5l2-0.5
			l1.1-1.1v-1l-0.1-1.5l0.5-3.5v-3l0.5-2l0.5-2.1l0.5-1.5l-0.5-1l-1.6-2v-1l1.6-0.5h5.1l1-2l2-3.1l1.6-3l2-3l0.5-3.1l3.5-6.5
			l3.6-8.1l2.5-5.6l3-7l4-14.2l2-10l2-5.6v-9.6l-0.6-2.5l-1.5-2l-1.1-2.5l-0.5-1.5l-1.1-3.5l-1-0.5l-1-1l-1.1-2v-3.5l1-3.6l-0.5-1.5
			l-1.6-2.5l-2-3L5-965.7l-1-2l-2.2-11.6l1.5-3l1.1-1l1.5-2l1-3.6l0.5-6l-0.6-3v-2.6l-1-0.4l-0.5-0.6l-0.6-1l0.5-1l1.1-1l0.5-2
			l-1.1-3l-1-3.5v-2.5l1-2.6l1-3.5l1-3l-1.6-4.6v-5.5l-0.6-2l-0.5-3v-3l-1.1-2l-1-1.6l-1.5-1.5l-0.1-2l0.5-4l1-3.5l-1-4.6l-0.6-4.5
			l-0.5-4.5l-1.1-3.5l-1-2l-2.6-3.5l-1.5-1.5l-1.6-2.1v-1.5l-0.5-2.5l-0.1-3l-1-2l-1-2.5l-2.1-2.5l-3.6-3.5l-6.7-5l-4.2-3.5l-2-2.5
			l-0.6-2l-0.5-2.6l1-2.5l0.5-2l0.5-1v-2.5l-1-2l-2.6-1l1-1l1.5-3.1v-1.5l-0.5-1.5l-1-4l-0.6-2.5l-2-2.5l-0.6-3l-0.5-3.1l-0.5-4
			l0.4-3.5l1-4l1-5.1v-3.5l-0.5-4l-0.1-4.1l-0.5-6l-0.6-5.5l-0.5-2.1l-0.5-4l-1.1-6.5l-1-2.5l-1.1-2l-0.5-1l0.5-1.1l0.5-1l0.5-3
			l-0.5-1.5l-0.1-3l-1-2l-0.5-4.6l-0.6-3l-1-3.5l-1.6-3l-1-2.5l-2.6-2l-3.1-2.5l-4.1-1.5l-7.7-3.5l-6.2-5l-5.7-4l-2-3l-1.6-1.5
			l-1-1.5l-2.1-1.5l-1.5-0.5l-1.1-0.5l-1-1v-2l-1.6-1.5l-1-0.5l-1.5-1l-1.1-2.5l-2-3l-0.6-2.5l-1.6-5.1l-1-2.5l-0.5-2v-1.5l-1.1-4.5
			l-0.5-1l-1.6-4l-1-1.5l-1-1.6l-2.7-8.5l-1-5l-1.1-5.1l-0.5-2.5l-2.6-2.5l-2.6-2l-3.1-2l-4.6-3l-5.1-4.5l-3.1-2.5l-1.6-2l-2.6-6.5
			l-1.1-3l-0.5-3.6l-1.5-2.5l-2.6-4.5l-2.1-4l-1.6-4l-1.5-3l-1.1-2l-1.5-5.1l-2.1-2.5l-4.2-5.5l-4.1-3.5l-1-0.5l-1.6-1l-2.5-2.5
			l-1.6-2.5l-2.1-3.5l-1-2.5l-3.6-5l-2.6-3l-2.1-2.5l-3.6-4.1l-2.6-2l-0.5-1.5l-0.5-2.5l-1.1-3l-2.6-3l-4.1-4.5l-6.2-7l-2.1-3.5
			l-2-1.5l-1.1-1l-8.7-6.5l-4.1-1.5l-3.1-0.5l-2.1,0.5l-1.5,2l-1,2.6h-1l-1.6-0.5l-2.6-4.6l-2-3.5l-2.1-2.5l-1-2l0.5-1l1-2.5l0.5-2
			l-2.1-1l0.5-3.1l-0.5-1.5l0.5-2.5l-0.1-4.5l0.5-4.6l1-6l0.5-4.5v-1l-1.1-4.6l-2.1-6.5l-2.6-6l-1-2.1l-1.5-2l-1.6-1l-0.5-1l-0.5-2
			l-2.1-3l-2.6-4l-4.1-5l-2.1-4.5l-1.1-3l-2-2.6l-2.1-0.4l-2.6-2l-2.5-1l-1.6-2l-1-1l-3.1-2l-4.1-3l-5.7-2l-4.6-2l-3.6-1l-2.1-0.5
			l-2.5-1.5l-3.6-2l-3.1-2l-4.7-2l-4.1-1l-3.1-1.4l-2.5-2.6l-2.6-1.9l-4.1-0.5l-2.6-3.5l-2.6-4.1l-3.1-4.5l-3.1-4l-1.1-3.5l-2-2.5
			l-2.1-4l-2.1-3l-2.6-3.6l-3.1-4l-2.5-2.5l-3.1-1.5l-3.1-2.5l-1.6-3l-3.6-3.5l-6.2-4.5l-7.7-4l-3.1-2.5l-3.1-1l-1.5-2l-2.1-2.5
			l-1.5-2.5l-2.6-2l-2.1-2.5l-3.6-3.5l-3.1-2.5l-3.6-2.5l-2.1-1.5l-2.5-2l-3.1-2.5l-2.6-3l-2.6-3.5l-6.2-6l-5.1-5l-4.2-3.5l-1-1.5
			l-1-1.1l-1.1-2l-0.5-2.5l-1-2.5l-1.6-3l-1.6-2.5l-2.5-2l-3.6-2.5l-5.2-2.5l-3.1-2l-1.5-1l-1.1-1l-1.5-2l-0.5-1l-1.6-2.5l-1.5-2
			l-0.5-1l-0.6-1.5l-3.1-2l-1.5-2l-1-2.1l-0.6-1.5l0.5-1.5l1.1-1l-0.1-1.5l0.5-3.5l-1-2.5l1-5.6v-3l2-5.6l2.5-6.5l1.5-3.1l1-4l0.5-4
			l0.5-1l0.5-2.1l1-3.5l1-2.5l1-2l1.6-2.6l0.5-2.5l0.5-4l-1.1-3l-0.5-4.6l-1.1-3l-0.5-3l-0.5-2l-2.6-3l-1.1-2l-1-2l-0.5-2.6v-3.5
			l-0.6-3.5v-10.1l-0.1-13.1l-1.1-6l-1.1-5.6l-0.5-3l-2.6-11.1l-5.7-7l-6.2-7l-2.6-1l-0.5-1.5l-2.1-3l-0.5-1.5l-0.5-2l-1.6-3l-2-2.6
			l-1.1-2.5v-1l-0.5-1.5l-1-2.5l-0.1-3l0.5-3l-0.5-2.6l-1.6-4.5l-2-1.5l-2.1-1.5l-1-1l0.5-2.5l0.5-3l3-5.6l4.6-9.1l4.5-7.6l4.1-9.6
			l2-6l2-5.1l2.5-8.1l1.5-6l1-2l0.5-2.5l-0.5-1.6l-1.5-3l-0.6-2.5v-1l0.5-1.5v-4l3.6-6.6l1-2l1-3.1l4-6l4.1-6.1l5.6-10.6l2.5-6.6
			l3.5-9.1l3.1-7l1.5-4.1l2.5-5l3.6-6.6l3-7.1l2.5-6.5l0.5-1.6l3.6-8l3.5-6.1l2-5.6l1-4l1.6-2.5l1.5-3.1l2-2l1.6-1.5l1-2.5l1-1
			l2-1.1h2.6l2,0.5h5.2l1,1l0.5,1.5l0.6,2l1.5,1l2.6,1h2v-1l0.5-3l5.1-5.1l1-2v-1l2.1-0.5l2-1.6l-4.6-1.5l-1.6-1l-3-0.4l-2.1-1.5
			l-3.1-0.5l-1.5,0.5l-1.6-1.5l1-1.5l1.6-4.1l2-6.5l6.6-10.2l6.6-5.5l-2.6-0.5l-2-2.5l-13.7,22.7l-2.1,4.6l-2.5,3.5l-3,5.1l-1.1,2.5
			l-0.5,2l-1.5,1l-0.5-1.5l0.5-2l2.5-4l2.1-4.6l3-5.1l5.6-9.1l2-4.5l9.6-17.2l4.1-8.6l2-4l4.6-7.1l5.1-6.6l2-3.5l8.1-13.2l10.2-16.6
			l4.6-7.6l7.1-11.2l2-5l1-3.5l1.5-3.6l3.1,3l1.6,4.1v1l1.5,1.5l0.6,4l-2.1-0.5h-2.1l-6.1,5.6l-7.6,11.6l-12.7,19.2l-0.5,3.1l1,2.5
			l-4.5,3l-0.5,2l2,2.6l3.6,3l3.6,0.9l2.1,1l4.1,1.5l3.1,1.5l7.7,2l0.5,1.5l3.6,4.5l4.6,2l-2.6-8.5l2.1-4.1l2-1l1-3l3.6-1.6l1-0.5
			l2.1-0.5l1.5-4l-1.6-3l-1-1.5l-3.2-10.1l-2-4v-1.5l1-1.6l0.5-1.5l1-1.5l1-2.5l0.5-1.5l3-5.1l-0.5-1l-2.5,1l-1.6-2.5v-2.5l2.1-0.5
			l6.1-1.6l5.1-2.5l2.5-5.6l3.1-6l-0.6-3.5l-2.1-10.1v-2l2.1-2.1l0.5,1.5v2.1l1.5,1l1-4.1l1.5-7.5l2.6-4.6l3.5-6.6l1-4.5v-2.5
			l5.1-8.6l9.7-3.6l5.1-4.6l4.6-1.5l1.5,1l-1,3l11.3-2.1l6.7,4l8.2,1l4.1-2.5l2-0.6l1.6-2.5l1-1l2.5-1l2.1-0.5l2.5-1.1l2.1-1.5
			l11.7-8.1l3.6-4.1l2-5.5v-5.1l-0.1-11h-5.1v-3l-0.6-5.1l-0.5-2l-4.6-1.5l-3.6-1.5l-3.6,2.6l-3.1,1.5l-4.6,3.6l-1-1l-3.1-1.5
			l-3.1-4.6l-4.1,0.1l-1.5-3.1v-1.5l-2.1-2.5h-4.1l-4.6-0.4l-1.1-2h-3l-1,4l-1.6,4.1l-2.5,3.5l-0.5,2l-1.5,2l-2.6,6.1l-3.5,5.6
			l-1.5,3.5l-1.5,6.1l-1.5,6l-1.6,3l-3.5,4.6l-5.6,4.1l-2.6,3.5l-3,3l-0.5,4.1l-2,2.5l-1.6,5.6l0.1,6.5l-0.5,3.5l-4.1,7.1l-1.5,1.6
			l-2,1.5l-1.6,2l-2,4l-6.1,4.1l-1.5,2.5l-2.6,3.1l-1,3.5l-1.5,2h-3.1l-4.6-3l-1.1-3l3.1-2.5l7.1-12.1l3.1-4.6l2.5-4l2-7.6l8.1-13.2
			l4.6-7.5l3.5-5.6l6.1-11.6l6.1-11.2l4.1-8.5l3-5.6l1.5-3.5l6.1-12.2l3.5-6.5l1.6-3.1l1-3l0.5-2.5l1-2.6l1.5-2l2-4.5l3.1-9.1l3-9.1
			l3.5-9.6l2-6.1l3-10.6l3.1-9.1l1.5-6.5l0.5-1.5l4-13.2l3-10.6l3-11.1l1.5-9.5l1.5-4.6l0.5-2.5v-1l1.5-3.1v-3.5l0.5-5l1-6.1l0.4-5
			l1-4.1v-3l0.5-2v-3l0.5-2.1v-2.5l0.5-1.5v-1.5l-1-1l-0.6-1.5l-1.5-1l-1-1.5l-1.1-2l-0.5-2v-3.1l-1.1-1.5l-1-3l-1.5-2l-0.6-0.5
			l-1-3l-3.6-3l-2.6-2.5l-4.1-3l-1.6-1.5l-2.5,0.5l-1.5,1.5l-1.6,1v2.5l-1,1.6l-1.5,0.5l-0.5-0.5l-1.1-1.5l-0.5-2.1l1-1l0.5-1.5
			l2.1-3.5l0.5-2l-0.6-2.6l-1-2.5l-1-1l-1.6-0.5h-2l-0.5-0.5l-0.6-1l-0.5-1.5v-2.5l0.5-2l1.5-2.5l0.5-2.6v-4.5l-0.5-1l-1.6-1
			l0.5-1.5h1.6l1-0.5l1-0.6v-1l-0.5-1.5l-1.5-2l-0.6-1l-1.5-3v-2.5l-1.1-2.5l-2-2v-1.1l1-0.5l0.5-1.5l1.5-1v-2l-0.5-2v-1l1-2.1
			l0.5-1.5v-3.5l0.5-1l-1.1-2.5l1.6-2.6v-1.5l-1.6-2l-2.6-3.5l-0.5-2l0.5-1.5l1-1l1-1.6l0.5-2l-0.5-2l-0.5-1.5l0.5-2l1.5-1l1-1
			l1.6-0.1h1.5l1.6,0.5l2,1l2.1,0.5l2-0.5l1.5-1l2.6-3l2-4.1l2-5l2.1-6.1l2.5-8.1l1.5-5.5l3.5-8.1l3-10.1l5.1-12.7l0.5-2l1-2.5
			l2.5-6.6l2.5-8.6l3.1-8l1.5-5.6v-3l-0.1-2l-0.5-3.1l0.5-2l1-0.5l1.6-3.5l2.5-7.1l2-7.1l1.5-5v-6.6l1-2.5l0.5-3.5l1.5-2.6l1-2.5
			l1.5-5l1.5-5.6l1-4.5v-6.1l0.5-2.5l0.5-2l1-2l1-3.6l1-3l1-7.1l2-5l0.5-3.1l-2.1-2l1.6-1.5l1-1l1-3l1-5.1l2-8.1l0.5-1l2.5-9.6
			l1-7.5l1-5.6l2.5-6.6l0.5-6.5l0.5-5.1v-1l1-4l0.5-3l1-4.1l1-3.5l1-6.1l-0.1-5l0.5-3.5l0.5-2.6l0.5-4.5l1.5-7.1l1-9.6l0.9-11.6
			l0.5-7l-1-6.6l-0.1-6.5l0.5-4.1l0.5-5.5v-5.1l-0.1-4l-0.5-2l-1.5-5.5l-1.1-5.6l-0.5-5l-1.6-4.6l-1.6-3.5l0.5-5l-0.5-3.6l-1.1-3
			l-1.5-3l-0.5-3.5l-1.1-3v-3.1l0.5-3.5l0.5-1l-1-3l-1.1-1.5l1-1.1l1.1-0.5l-1.1-2.5l1.6-2l-0.1-2l0.5-5.6v-9.1l2,1l1.1,1.5v4.6
			l-0.5,1.5v1l1,0.5l1.5-3l0.5-2l1.1-1.1l1.5-0.5l1,1l2.6,1.5l5.6,2.5l3.7,3.5l1.5,0.5l1.5,1l1.6,2l2-0.5l1-1.5l-0.5-1v-1.5l-2-2
			l-1.1-1.5l-2.5-1.5l-2.6-1.5l-2.1-1l-2.5-2.5l-2.1-0.5l-1.5-1l-2.6,0.5l-1.5-1l-2.1-0.5l-1-0.5l-2.6-1l-2.6-0.5l-3-3l-4.2-4
			l-2.6-2.5l-0.5-4.5l-1-2.6l-1.1-3.5l-1.5-3.5l-0.1-4v-1.6l0.5-1.5l0.6-1.5l-0.1-1.5l-1-1.5v-1.5l2-1l1.1-1.6v-1.5l-0.1-2.5l-2-5
			l-2.1-2.5v-1.6l1.5-3l0.5-1.5l0.5-2.5l-0.5-2.5l-1.1-2.1l-1.5-1.5l-0.5-1l-1.1-2.5l-1-1.5l-1-3l-1.6-2h-2.5v-2.5l0.5-2.1l-0.1-1
			l-0.5-2l0.5-2l-0.5-5l-1.1-3.1l-2-7.5l-0.6-3l-1-2.1l-1.6-3.5l-2.6-6l-2.5-4l-1.6-2l-1-5.1l-1.6-4l-1.6-5.6l-1.5-4l1-2.5l0.5-1.5
			v-3l-0.6-3.1v-3.5l-2-3.5l1-1l-0.6-5.1l-0.5-3l1-1.5l-0.5-7.6l-2.1-10.1l-1.1-5.5l-2.1-6l-3.6-6.6l-1-1.5l-4.2-6l-3.6-5.6l-4.6-3
			l-2.6-1.5l-1.5-0.5h-1l-0.5-0.5l-1.6-0.5l-1-1.5l-1.6-1.5l-2-1l-2.6-1l-1.5-0.5l-1.6,0.6l-1,1.5l-2,1.5l-1,0.5l-2.1-0.5l-2.6-1
			l-3.6-2l-3-2l-1.1-1l-1-2l-0.5-1.5l-2.1-2l-1.5-0.5l-0.5-1.5l-1.1-2l-4.6-4.6l-3.6-3.5l-2.6-2.5l-2.1-2.5l-1.5-1l-1.5-0.5
			l-1.6,0.5h-1.5l-1-0.5l-0.6-1.5l-1.5-1.5l-2.1-2.5l-1-2.5l-1-1l-0.6-2v-1.5l1-1.6l1.6-1l1.5-1.5l2.1-1l1.5-1.5l1-1.6l1.5-2l2.1-3
			l2.5-4.6l4.1-8.1l3-7l1.5-4.1l2-6.6l5.1-13.6l4-13.2l2-9l1.5-7.1l1.5-7.6l2-4.5l2-9.1l2-11.2l2.5-9.5v-3.1l0.5-4.5l0.5-7.1l0.5-4
			l0.5-5.6l0.5-4.5l-0.1-3.6l0.5-3l0.5-3.5l0.5-3.1v-4l0.5-2l1-1.5l0.5,1l0.6,2.5l-1,5l-0.5,4.1l-0.5,3.5l1.5,1.5l0.5-1h1.6l1,0.5
			l1,2l0.5,1.5l1.1-1l-0.1-2.5l-1-4l-1-1.5l-0.6-1.6l0.6-1.5h1l1-1.5l-0.5-1v-1l-1.1-3l-1.5-3.1l-2.1-2l-3.1-0.5l-2.5,0.6l-1.1-3.1
			v-1.5l0.5-3.5l0.5-4l1-2.6l1.6-5l1-3.6l0.4-5v-6.6l-0.5-5.5l-0.1-4.1l-0.5-1.5l-1-2l-0.5-3l-0.6-3.5L-241.9-3653.2z"/>
		<path id="_x31_770" class="st0" d="M-262.8-2331.8l-4.1,3.1l-4.6,2l-1-0.5l0.5-1.5l2-5.1l2-3.5l2.6-0.5l1.5,0.5l3.1-0.5l1.5-0.6
			h2.6l1.5,1.5l-0.5,2.1l-2,1.5l-2.1,1L-262.8-2331.8z"/>
		<path id="_x31_827" class="st0" d="M1757.3,752.2l-1.5,1.5l-4.1,2.6l-3.1,1.5l-4.6-1l-4.7-2l10.2-10.1l4.6-4.1l5.1-4.5l0.6,6.5
			l-0.5,4l-1,3.1L1757.3,752.2z"/>
		<path id="_x31_828" class="st0" d="M1503.9,752.9l1,3.1l0.5,3l-1.5,1.5l-0.5,2h-5.6l-1,1.1l-2.1,0.5l-1-1l-4.6-0.5l-4.2-2.5v-3.5
			l-1.1-5l-4.1-3l-7.7,2.5v-6l-2.6-4l2.5-1.5l8.8,3.9l12.3,4l6.7,3.5L1503.9,752.9z"/>
		<path id="_x31_831" class="st0" d="M1669,809.7l4.1,3l3.6,2.4l4.6,1.5l2.1-1l2,0.5l3.6-0.5l3.6,0.9l2.1,1l5.1,5l-4,3.1l-4.6,1
			l-6.7-0.9l-7.7-2l-9.8,0.1l-6.7-4.5l-3.6-4l-3.1-9.6l-2.7-6l-2.1-7v-7.6l-2.1-6l15.4,4.9h2.1l3.6,1l4.6,1.5l5.1,1l3.1,2.5l-1,2.5
			l-1.5-1.5l-2.1,0.5l-2.5,2.5l-6.7,2.1l-1,2.5l-4.6,4.6l0.6,3l1.5,5l3.6,1L1669,809.7z"/>
		<path id="_x31_833" class="st0" d="M1639.7,800.8l1.5,4.5l1.1,3l2.6,5.1l-1.5,2l-3.6-1l-4.2-2l-5.1-1l-7.7-0.4l-8.2-3l-4.7-4v-2.5
			l9.2-3.1l8.2-2.5l2-3.6l1-8l1.5-3.6l4.1,3.5l1.6,5.1l0.6,3l1,4L1639.7,800.8z"/>
		<path id="_x31_852" class="st0" d="M1113.3,999.6l-2.5-1l-2.6-0.9l-0.5-2.1l0.5-2.5l1-3.5l2.5-3l3.1-2.1l2-2.5l3.6-2.5l2-0.1
			l2.1,2l2.1,4.1l2,2.5l2.1,6l-1.5,4l-2.5,3.1l-2.6,0.5h-1.5l-5.2-1l-2-1H1113.3z"/>
		<path id="_x31_855" class="st0" d="M1178.4,1054l-3.1,1.1l-2-2l-2.1-2l-1.6-1.5l0.5-4.6l-5.7-15l2.5-3.6l5.6-1.5l7.3,13.5
			l-7.1,6.1l0.5,2.5h3.6l2-2l2.6-0.5l1.5,0.5l0.6,3l-2.6,2.5l0.1,3.5H1178.4z"/>
		<path id="_x31_859" class="st0" d="M1204.7,1069v-2.6l29.3,6.9l10.7-0.6l5.7-0.5l2,1l4.6,1.9l3.7,3l0.5,3.6l5.7,2.9l3-1l1.1,2.5
			l4.6,2l4.1,3.5h3.1l5.2,4l5.7,2.9l4.1,7.6l0.6,5.5l-4.1,5l-7.7,2.1l-9.2-2.9l-6.2-2.5l-7.7-5l-7.2-2l-4.7-8l-3.1-2.5l-7.7,1.1
			l-8.2-2l-1.1-3.5l2.6-3.5l-0.6-3l-8.2-1l-1,5.1l-5.6-1.5l-2.6-3l-4.6-0.5l-7.7-2L1204.7,1069z"/>
		<path id="_x31_860" class="st0" d="M468,1063.8l-5.2-2.4l-2.1-3.6v-2l2.1-0.5l2,0.5l4.7,3v1.5l2.6,0.5v2.5h-1.6L468,1063.8z"/>
		<path id="_x31_862" class="st0" d="M527.5,1070l1.6,1l1,2v1.5l-4.6,1l-1.5-0.5l-0.6-2l1.6-1.5L527.5,1070z"/>
		<path id="_x31_864" class="st0" d="M529.7,1083.6l2-0.1l3.6,1l0.1,1l-2.1,1.1l-2.6,0.5l-1-1.5V1083.6z"/>
		<path id="_x31_865" class="st0" d="M588.5,1124.9l0.5-1v-1.5l2.6,1l1,0.5l0.5,1l-1.5,0.5l-1.6-1l-0.8,0.3L588.5,1124.9z"/>
		<path id="_x31_867" class="st0" d="M612.8,1154l2.1,4h-1.5l-1.6-0.5h-1l-1.5-2.5l1.5-2.5L612.8,1154z"/>
		<path id="_x31_868" class="st0" d="M618.5,1153.4l3.6,0.5l0.5,2l-3,3.6l-1.1-2.6l-0.5-2.5L618.5,1153.4z"/>
		<path id="_x32_057" class="st0" d="M3375.3,5290.8l0.4-5.6l3.1-3l1-4.1l3-2l1.5-6.1v-2l0.5-3l0.5-2.5l-1-2.1l-2.1-3l-6.7-2.9
			l-1-6.1l-5.7-4.5l-2.1-1.5l-2.5-1.5l-2.1-2l-2.6-1l-3.6-3l-3.6-2l-4.6-2.4l-7.2,2.5l-4.1-1.4l-1.5-3.6l6.1,0.5l2.6-2l2-1.6l-1.6-3
			l-2.5-2l2.5-4.5l1-5.6l10.2,1.5l4.1,0.9l4.6,1l4.1-1l1.6,2.5l4.6-1.6h4.6l1.5,1h4.6l5.7,1.9l5.1,1l4.1-1l7.2,3.4l9.3,3.5l8.2,3
			l6.1,3.4l5.2,5.1l2.6,3l3.6-2.1l3,2.5l11.8-3.1l2.5-2.5l6.2,1.4l3.6-2l5.6,2l10.8,0.4l5.6-3.1l4.6,2l1.6,3.5l5.1,0.5l1,2h3.1
			l2.6,1.5l6.7,3.4l5.1-2l9.7,5.5l6.2-0.1l7.2,6.5l1,4l3.6,2l4.7,2l6.7,10.6l4.6,0.4h4.1l3.6,1l4.1,3l7.2-1.6l6.6-2.1l3.1,4.1
			l9.2-1.1l2.6,3l4.6,1l5.7-2.1l4-2l3.6,0.4l12.2-15.2l-3.1-6l1-5.1l3.5-2l3.6-3.6l3.6-4l10.2-5.6l4.1,3.5l6.1,0.9l1-3.5l4.7,0.5
			l4-3.6l4.1,2l3.1,5.5l9.8,4.5l5.1-0.1l9.3,3l4.1,5.5l3.6,2.5l-2,4.6l-2.6,1.5l-2,3l-3.6,2.1l-8.7,1.5l-3.5,5.1l1.6,4.5l-4.1,3.1
			l1.1,4.5l-1.1,2.6l-2.5,3.5l-1,1.5l-0.5,2l-3.1,0.1l-2.5,1.5l-7.7,0.6l-4.1,0.5l-5.1,3.1l-6.6,3l-4.6,2.1h-6.7l-5.1,1.6l-5.1-1.5
			l-7.2,1.6l-9.2-1l-5.6,1.1l-6.2,2l-6.1-1.4l-11.3,0.1l-6.6,4.5l-5.6,3.1l-3.1,1l-2,2.6l-6.1,0.5l-2.6,2.6l-6.6,3.5l-5.6,1.6
			l-1.5,4.5l-5.2-2.9l-6.6,5.6l-7.1,5.6l-5.2-1l-4.6-1.5h-5.6l-7.7-2.9l-2.6,1.5l-1.5-1l-3.6,2.1l-2.5,0.5l-1.6,2l-6.1-0.5l-4.6-2.4
			l-2.6-0.5h-2.6l-3,2l-8.7,1.6l-4.6-4.5h-4.1l-12.3,1.1l-7.2,4.6l-3.1-6.5l-5.6-4h-3.1l-2.6-1.5l-8.7-0.4l-3,4.1l-4.7-2l-3.6-4.5
			l-1.5-1.5l-0.5-1l-5.7-4.5l-11.8-2v-3.5l0.5-3.5l-2.1-3.6l-2.1-3v-1l-3.1-6l-1.6-6L3375.3,5290.8z"/>
		<path id="_x32_058" class="st0" d="M2935.3,5212.9l1.6,7l3.1,2.5v4l1.6,4.1l-4.6,5l3.6,5l7.2,2.5h5.7l8.6-2.1l3.6,0.5l3.7,5
			l5.1,2.5l7.7,5.5l1.1,4.5l1,4l2.1,3.5l9.8,3l-1.6,2l-4.6,0.5l-5.6,0.6l-6.6,2.1l-8.8-1l-6.6-0.9l-8.2,0.5l-6.7,0.6l-6.1,1
			l-2.5,4.1l-7.2-0.5l-4.6-2.5l-5.2-3.4l-6.2-4.5l-5.1-1.5l-7.2-2.5l-9.2-3.9l-4.6-1h-2.6l-2.5,2l-4.1,4.1l-6.2,0.5l-5.1-4l-4.6-1.4
			l-4.6,0.5l-7.2,1.6l3.6-4.1l-0.6-4.5l4.1-1.1h3.1l3.6-1l9.1-11.2l7.6-3.1l4.6-5l2.1,3l4.6,1l4.6,2.4l6.2-0.5l4.6-1.6l2.5-2l3.1-2
			l3.5-2.1l2.6-2l3-3.1l3.6-3.5l2-4.1l-0.6-6.5l1.6-1L2935.3,5212.9z"/>
		<path id="_x32_060" class="st0" d="M2961.5,5226.8l2-2.6h5.7l2.1,3.5l-0.5,3l-2.1,0.6l-4.1,0.5l-2.5-0.5l-2.1-2.5L2961.5,5226.8z"
			/>
		<path id="_x32_062" class="st0" d="M3115.4,5388.5l-2.1-3l-2.1-2.5l-7.7-4l0.5-4l-2.6-5.6l-1.6-5.5l-2.6-4l-1-4.5l-2.6-3l-3.6-2
			l-2.6-0.5l-1-3.5l-2.6-5.6l-3.1-4l-1.1-4l-1.6-5l-4.6-4.5l-4.6-4l-3.1-3.5l-1.1-6.1l-2.6-2.5l-3.1-2l-5.1-1l-3.1-1.4l-1.6-3.6
			l-2.5-3l-5.2-0.4l-2.5-3l3.5-0.6l3.1-1l2.5-2.5l1.5-3.1l5.7,0.5l4.1-1.6h7.7l11.2,4.4l9.8,1.5l11.7-3.1l5.2,1.4l2.5-0.5l2.6-1.5h2
			l5.2,0.4l13.2-11.7l3.5-5.5l5.6-2.1l6.7-0.5l7.2,3.4h6.1l4.7,3l7.1,0.4l4.6-0.5l6.7,0.9l8.2-1.5l5.1-1.1l6.6-3l2.1-3.6l3-1.5
			l3.1-1.6l4-5l3.1-2.1l3.6-0.5l2.6,1.5l2.5-0.5l3.1,0.9l0.5,2.1l-0.5,4l0.1,5.5l-4.1,7.1l-1.5,5.6l1.1,4l1.6,5l0.5,7.6l7.3,7
			l12.8,7.5l9.8,2.9l2,2l6.2,2.5l10.7-3.1l9.7-1.6l4.1,0.5l0.1,2.5l-1,5.1l0.5,6.5l1.1,6.6l1.1,8l2.6,1.5l2.6,4.5v6.6l2.6,4.5
			l-3.1,0.5l-5.6-0.4l-6.7-0.5l-10.2,0.6l-9.7,1.6l-2,2.5l-9.8,2.6l-4,5.1l-5.6,4.6l-9.2,3.6l-2.5,4l-5.1,2.1l-1.5,4l-7.7,1.6
			l-8.2,0.6l-6.1,1.5l-5.6,3.6l-10.8-1.5l-6.1,1.6l-5.1,2.1l-6.1,6.1l0.5,4l-1.5,2l-4.6,1.1l-2.6-0.5l-2.5-0.5l-2.6-2.5l-3.1-1
			l-4.1-3l-3.6-1l-2.6-3l-4.1-2l-3.6-2.5l-3.1-2.5l-2.1-2l-3.6,1.1l-1.5-2l-1-2l-2.1-1.5l-2.6,0.5L3115.4,5388.5z"/>
		<path id="_x32_063" class="st0" d="M3848.4,5277.7l2.5-2l5.6-1.6l4.6-0.5l3.6-0.6l1.1,3.6l-1.6,1.5l-2,0.5l-3.1,0.5l-9.2,0.6
			L3848.4,5277.7z"/>
		<path id="_x32_064" class="st0" d="M3793.1,5280.1l-4.7-1.5v-1.5l7.7-1.5l4.1-1.1l5.6,0.5l5.2,3l1,2l4.7,4l1.5,0.5l-2,1l-10.3,1.1
			l-5.1-2l-4.1-3L3793.1,5280.1z"/>
		<path id="_x32_065" class="st0" d="M3828.9,5283.4h3.6l5.1-0.6l4.6-3l4.1,0.9v1l-2,1.6l-1.5,2l-2.1,1.5l-7.6,3.1l-6.2-1l-4.6-3.9
			l5.1-2.6L3828.9,5283.4z"/>
		<path id="_x32_077" class="st0" d="M4891.3,5561.1l1,2.5l-5.1,3.1l-4.1,4l-0.4,5.1l-3.7-4.5l-2.5,1l4.7,16.1l-2.6,0.5l-6.8-19.6
			l0.5-1.5l0.5-2.5l3.1-4.1l2-2.5l3.6-3.1l3.5-6.6l2.6-3.5l7.6-2.6l22-5.7l0.5,1.5l4.2,8l1,5.6l-4,2l-3.7-5l-4.5,1.6l-11.8,4.6
			l3.1,7l1.1,1.5l8.7,1l10.7-3.1v2l-9.2,3.6l-10.7-0.9l-2.1-2.1l-4.2-8.5l-3,1.5L4891.3,5561.1z"/>
		<path id="_x32_078" class="st0" d="M4157.1,5863l7.7,0.5l4.5-3.1l1-3l2.6-1h1.5v3l-0.9,3.5l2,5l-2.5,6.6l-1.5,4.1l-1.5,4l-3.1,1.1
			l-2.5-2l-2.1-3.6l-1.1-6.5l-3.1-5.5L4157.1,5863z"/>
		<path id="_x32_079" class="st0" d="M4686.8,6009.1l-4.7-3l-4.1-5.5l-0.6-7.6l3.1-3.1l3.5-5l-1.5-6.6l4.5-7.1l2.6-0.5l2.5-1.5l-1-3
			l-3.1-5.6l-4.2-8.5l-2.1-10.6l-1.6-11.6l-5.1-5.5h-8.7l-5.7-5.5l6.6-7.6l-4.6,0.1l-6.1,4.5l-6.7,3.1l-4.1-1.5l-7.1-1.4l-6.2-2
			l-6.6-1l-13.9,2.1l-1.5-0.4l-6.7-6.6l-5.6-2.9l1.5-7.1l-7.2-2.5l-12.4-13l-8.8-11.6l-2.1-6l5.2-1l10.2,1.9l4.6,1l6.7-1.6l7.6,1.5
			l6.2,0.4l3.6-0.5l11.7-0.6l5.2-1.5l5.6,3.5l2.6,4.5l1.5,3.5l6.7,1l-1.5,3.5l11.8,5.5l4.1,3l4.7,7l2.6,6.5l4.6,0.5l5.6-2.1l5.6-3.5
			l5.1-0.6l3.1,5.6l5.7,0.4l3.1,3.5l10.2,5.5l4.6,1.5l8.8,5.5l8.7-1.1l7.1,0.5l18.5,7.9l10.3,2l3.1,4l7.2,5.5l8.2-0.1h3.5l-1,4.5
			l-3,9.6l16,22.1l20.6,17l6.8,14.6l11.8,8l3.1,10.6l6.2,9l-1.4,13.7l-6.2,0.5l-1,6.6l-5.1,1l-5.6,3.1l-8.2-2.5l-13.9-7.4l-4.1-6.6
			l-6.7-2.4l-5.1-0.5l-15.3-0.4l-8.2-4l-12.8,2.6l-8.7,0.1l-10.7,3.1l-8.8-2.5l-10.7,0.1l-7.7,0.6l-5.1-3.5l-4.7-4.5l-4.6-5.6
			l-4.6-4.5l-1.6-6.5L4686.8,6009.1z"/>
		<path id="_x32_081" class="st0" d="M3720.4,6151.8l-7.6-1.9l-9.3-2l-9.7-2.9l-3.6-2.5l-2.6-3l-7.2-5.5l-5.2-10.1l-4.1-3.5l-2.6-5
			l1-6.1l-4.7-7.5l-2.6-6.1l0.5-1l6.2,2l3.1,3l7.7,4l6.1-3.1l3-6.1l5.1-1l7.2-0.6l4.6-5.1l4.1,1l5.1,2l3.1,3l4.6,2l6.2,4.5l6.1,3.5
			l4.2,5l8.7-0.1l4.1,3.5h6.1l2.6,1.5l6.2,1.5l5.6,2.4l4.6,4.5l4.2,4.6l4.1,3.5l4.7,8.5l3.6,3.5l7.2,4l6.1,2.5l-2.5,3.5l-2.6,0.6
			l-2.5,0.5v2.5l-2,3l-2.6,3.6l-7.1-1l-5.7,2.1l-4,1.5l-5.7,0.6l-9.7,1.1l-8.2-4l-8.7-2.5l-4.1,1.6l-5.6-1.5l-10.8-2.4
			L3720.4,6151.8z"/>
		<path id="_x32_088" class="st0" d="M4570.7,6348.1l3.1-0.5l1.5,1.5l1,0.5l1.1,1.5v2l-2.6,2l-1.5,0.1l-2.1-1l-2-3.1l0.5-1.5
			L4570.7,6348.1z"/>
		<path id="_x32_089" class="st0" d="M4671.7,6540.3l0.4-8.1l-5.6-6.5l-8.2-5l-6.8-12.6l-5.2-9.6l-6.1,1.1l-6.7-13.1l-1.7-16.6
			l-3.6-14.2l-5.7-9l-5.2-6.5l-6.1-5.5l-4.2-6.6l-2.6-7.5l-0.6-10.1l-4.1-6.6l-3.1-12.1l-3.7-6.5l-3.6-3l-4.1-3.5l-9.2,0.1v-4.1
			l0.5-7.1l-0.6-7.5l5.6-2.1l8.2-0.5l2.1,5.5l7.1-1.6l5.6-4.6l4.7,5.1l2.5,1.5l2.6,2l3.1,3l-3.6,4.5l4.2,7.1l2.6,9h4.1l5.6,4.5
			l1.6,6.6l5.2,14.6l7.7,5l4.7,9l9.2,7.5l9.4,15.6l8.2,12.6l7.7,7.5l9.3,9.5l10.8,5l7.2,6l4.6,5l4.2,5.6l6.6,6l9.8,7.5l16.5,15
			l11.8,9.5l13.4,11.5l12.8,13.1l12.4,7.5l9.8,14.5l7.7,5l-1.5,4.1l-5.2-1.5l-3.1-4l-6.1-1.5l-7.2,2.1l-3.6-4.5l-6.6-2.5l-8.2,2.1
			l-3.6,4l-6.1,3.1l1.6,8.1l-6.1,1l-5.1,1.1l-12.2,11.2l-4.7-13.6l-4.7-4l-5.1-1l-3.6-4.5l-4.1,1.5l-3.1-3.5l-8.2-8.5l-6.2-3
			l-4.1-7.6l-5.1-4.5l-12.3-0.4l-0.6-6l-6.6-2l-3.2-9.1L4671.7,6540.3z"/>
		<path id="_x32_096" class="st0" d="M5877.8,6613.7l1-5.1l2.1-3.5l1-3.6l1-1.5l2-1l1.6,0.5l0.5,2l-1.5,2l-1.1,1.6l-0.5,1.5v2.5
			l0.6,1.5l1,1l0.5,1l-1.5,0.5l-1.6-0.5l-1-0.5v1.6l1,1l1.1,1.5l2,1l1.6,1l1.5,1v4l-1,0.5l-1.5,1l-2.1-0.5l-0.5-1.5v-1l-1.5-1
			l-1.1-1l-2-0.5v2.6l-1.5,0.5l-2.6-0.5l-1.5-0.5l-1.1-1.5l0.6-1h1l1.5-1.6l0.5-2L5877.8,6613.7z"/>
	</g>
</g>
<g>
	<line class="st1" x1="1285.6" y1="1244.5" x2="1122" y2="1408.1"/>
	<line class="st1" x1="1285.6" y1="1408.1" x2="1122" y2="1244.5"/>
</g>
</svg>
